<svg xmlns="http://www.w3.org/2000/svg" fill="none" viewBox="0 0 294 220"><g clip-path="url(#a)"><path d="M130.46 59.98c-7.76 2.66-16.68 4.1-31.5 9.56-14.83 5.45-31.13 16.09-36.27 47.9-5.14 31.84 8.25 68.21 60.3 86.09 36.42 12.5 83.08.86 113.53-29.67 30.7-30.78 39.81-74.04 37.76-108.73-2.05-34.7-29.38-58.47-51.07-62.75-21.57-4.3-37.32.73-53.13 23.52-15.8 22.78-23.37 28.56-39.5 34.08Z" fill="#FDF2FF" opacity=".8"/><path d="m141.3 53.38-.05-.5.06.5c-3.15.39-6.43.56-10.15.76l-3.47.19c-5.22.3-11.37.76-19.17 1.9-7.77 1.12-16.13 3.43-23.98 9.16-7.85 5.74-15.24 14.93-21.02 29.9-5.76 14.94-7.25 31.93-1.45 48.68s18.92 33.31 42.46 47.39c32.87 19.65 80.71 17.93 116.68-5.55 36.24-23.67 54.04-63.96 59.2-98.23 5.13-34.12-16.56-62.83-36.7-71.42-10.1-4.31-19.2-6.04-28.25-4.35-9.05 1.68-18.12 6.79-28.17 16.26-10.1 9.51-17.4 15.33-24.2 19.02-6.9 3.7-13.3 5.26-21.8 6.3Z" stroke="#3E4957" opacity=".8"/><path d="M106.93 119.93a32.9 32.9 0 0 1-32.95 32.86c-43.7-1.8-43.7-64 0-65.8a32.9 32.9 0 0 1 32.95 32.84Z" stroke="#B150D2" stroke-dasharray=".93 4.66" stroke-linecap="round" stroke-miterlimit="10" stroke-width="1.4"/><path d="M2.53 44.45h220.98v117.97c0 1.23-1 2.22-2.22 2.22H4.74c-1.22 0-2.2-1-2.2-2.22V44.45Z" fill="#fff" stroke="#3E4957" stroke-width=".5"/><path d="M2.28 31.73c0-1.36 1.1-2.46 2.46-2.46H221.3c1.35 0 2.46 1.1 2.46 2.46V44.2H2.28V31.73Z" fill="#3C4858"/><circle fill="#fff" cx="10.06" cy="37.35" r="3.11"/><circle fill="#fff" cx="20.55" cy="37.35" r="3.11"/><circle fill="#fff" cx="31.04" cy="37.35" r="3.11"/><rect fill="#9B27AF" fill-opacity=".15" width="87.53" height="34.41" x="117.05" y="64.61" stroke="#9B27AF" rx="1.25"/><path d="M182.06 86.38c-.43 0-.82-.07-1.16-.2a2.54 2.54 0 0 1-1.4-1.44 2.88 2.88 0 0 1-.2-1.04v-.2c0-.43.06-.81.18-1.16.12-.35.3-.65.51-.9a2.32 2.32 0 0 1 1.9-.8 2.38 2.38 0 0 1 1.71.74c.2.24.37.53.47.86.11.33.17.7.17 1.1v.62h-4.4v-.98h2.95v-.11c0-.2-.04-.4-.11-.55a.87.87 0 0 0-.31-.4.97.97 0 0 0-.56-.13c-.2 0-.36.04-.5.13a1 1 0 0 0-.34.35 2.81 2.81 0 0 0-.27 1.22v.2a1.75 1.75 0 0 0 .37 1.1 1.31 1.31 0 0 0 1 .44c.28 0 .52-.06.75-.16.22-.1.42-.26.6-.47l.7.77a2.55 2.55 0 0 1-2.15 1Zm-5.03-5.64h1.33v5.35c0 .5-.1.93-.33 1.28-.23.36-.54.63-.94.8a3.29 3.29 0 0 1-2.86-.1 1.85 1.85 0 0 1-.58-.49l.65-.87c.17.2.36.36.59.46.12.12.36.17.64.17.27 0 .5-.05.68-.15.2-.1.34-.23.44-.42.1-.18.14-.4.14-.67v-4.08l.16-1.28Zm-3.72 2.83v-.1c0-.43.05-.81.15-1.16.1-.34.25-.64.44-.9a2.03 2.03 0 0 1 1.64-.77c.37 0 .68.06.93.2s.46.33.62.58c.16.25.28.55.37.89.1.34.16.7.21 1.1v.24c-.05.4-.13.75-.23 1.08-.1.33-.23.62-.4.87a1.71 1.71 0 0 1-1.5.77 2.02 2.02 0 0 1-1.63-.8c-.2-.24-.35-.54-.45-.88-.1-.34-.16-.71-.16-1.12Zm1.47-.1v.1a2.34 2.34 0 0 0 .26 1.17c.1.15.22.27.36.35a1 1 0 0 0 .5.12c.28 0 .5-.05.67-.16.17-.12.3-.28.38-.48.09-.2.14-.43.15-.7v-.67a2 2 0 0 0-.09-.57 1.37 1.37 0 0 0-.21-.45.93.93 0 0 0-.36-.28c-.15-.07-.32-.1-.52-.1s-.36.04-.5.13a1 1 0 0 0-.36.35c-.1.15-.16.33-.21.53-.05.2-.07.42-.07.66Zm-3.87 1.56v-2.47a.95.95 0 0 0-.1-.46.65.65 0 0 0-.26-.3.9.9 0 0 0-.47-.1c-.16 0-.3.02-.42.08a.62.62 0 0 0-.28.24c-.06.1-.1.23-.1.37h-1.47a1.54 1.54 0 0 1 .64-1.23c.2-.17.46-.3.74-.39a3.2 3.2 0 0 1 2.12.08c.34.14.6.36.8.65.2.28.28.64.28 1.07v3.12c0 .2.1.35.13.5v.08h-1.47a2.13 2.13 0 0 1-.16-.56 4.65 4.65 0 0 1-.05-.68Zm.2-2.13.1.84h-.81c-.2 0-.37.02-.5.06a.94.94 0 0 0-.36.2.74.74 0 0 0-.27.62c0 .12.04.24.1.34.06.1.14.18.25.23.1.06.24.1.38.1a1.18 1.18 0 0 0 .96-.47.66.66 0 0 0 .13-.37l.4.62a2.6 2.6 0 0 1-.6.86c-.13.13-.3.24-.5.32a2.16 2.16 0 0 1-1.67-.09 1.54 1.54 0 0 1-.93-1.45c0-.28.05-.54.16-.76.1-.23.27-.42.48-.57.2-.16.48-.28.8-.35.32-.09.7-.13 1.12-.13h.85Zm-10.7-1.02v4.4h-1.47v-5.54h1.38l.09 1.14Zm-.2 1.43h-.4c0-.38.04-.74.13-1.06.1-.33.24-.6.42-.85a1.9 1.9 0 0 1 1.6-.76c.27 0 .49.03.7.1a1.45 1.45 0 0 1 .87.95c.09.25.13.55.13.9v3.68h-1.48v-3.53c0-.25-.03-.44-.1-.58a.58.58 0 0 0-.3-.29 1.1 1.1 0 0 0-.43-.08 1 1 0 0 0-.5.12 1 1 0 0 0-.34.33c-.1.13-.17.3-.2.48-.06.18-.1.38-.1.6Zm3.3-.17-.53.07c0-.36.05-.7.13-1 .1-.32.23-.6.4-.83a2.03 2.03 0 0 1 1.6-.75c.27 0 .5.05.73.12a1.45 1.45 0 0 1 .9 1.01c.09.27.13.6.13.98v3.53h-1.48v-3.53c0-.26-.03-.45-.1-.58a.54.54 0 0 0-.3-.29 1.08 1.08 0 0 0-.43-.08.97.97 0 0 0-.8.4 1 1 0 0 0-.2.4c-.03.1-.05.3-.05.5Zm-5.91-4.32v7.45h-1.6v-7.45h1.54Z" fill="#9B27AF"/><path d="M129.46 76.27a.8.8 0 0 0-.8.8v11.19c0 .44.37.8.8.8h14.16a.8.8 0 0 0 .8-.8v-11.2a.8.8 0 0 0-.8-.8h-14.16Zm-2.1.8c0-1.16.94-2.1 2.1-2.1h14.16c1.16 0 2.1.94 2.1 2.1v11.19a2.1 2.1 0 0 1-2.1 2.1h-14.16a2.1 2.1 0 0 1-2.1-2.1v-11.2Z" fill="#9B27AF" fill-rule="evenodd" clip-rule="evenodd"/><path d="m133 80.1 8.54 9.23-.96.9-7.53-8.14-4.53 5.4-1-.9 5.48-6.5Z" fill="#9B27AF" fill-rule="evenodd" clip-rule="evenodd"/><path d="m140.04 81.72 5.5 5.48-.94.93-4.48-4.48-2.17 2.51-1-.85 3.1-3.6Z" fill="#9B27AF" fill-rule="evenodd" clip-rule="evenodd"/><path d="M140.35 80.08a1.26 1.26 0 1 0 0-2.52 1.26 1.26 0 0 0 0 2.52Z" fill="#9B27AF"/><rect width="88.03" height="34.91" x="21.19" y="106.85" stroke="#DDE0E4" stroke-width=".5" rx="1.5"/><path d="M71.44 120.47v7.45h-1.53v-7.45h1.53Zm2.97 3.18v1.2h-3.38v-1.2h3.38Zm.36-3.18v1.2h-3.74v-1.2h3.74Zm-9.39 7.45h-1.62l.01-1.2h1.6c.4 0 .76-.09 1.03-.27.28-.18.49-.45.63-.8.14-.35.2-.78.2-1.27V124c0-.37-.03-.7-.11-1a2 2 0 0 0-.35-.73c-.16-.2-.35-.34-.58-.44a2 2 0 0 0-.8-.16h-1.66v-1.2h1.67c.5 0 .95.09 1.37.26a3.1 3.1 0 0 1 1.78 1.84 4 4 0 0 1 .25 1.45v.36c0 .52-.09 1-.25 1.44a3.12 3.12 0 0 1-1.78 1.85c-.42.17-.88.25-1.39.25Zm-.75-7.45v7.45H63.1v-7.45h1.53Zm-5.39 4.8h-1.9v-1.2h1.9c.3 0 .54-.05.72-.14.18-.1.32-.24.4-.41a1.5 1.5 0 0 0 0-1.2.97.97 0 0 0-.4-.47 1.33 1.33 0 0 0-.72-.17h-1.36v6.24h-1.54v-7.45h2.9c.59 0 1.09.1 1.5.32a2.26 2.26 0 0 1 1.3 2.13 2.16 2.16 0 0 1-1.3 2.06c-.41.19-.91.29-1.5.29Z" fill="#3E4957"/><g fill="#3E4957" clip-path="url(#b)"><path d="M30.96 132.62v-2.5h1.31v2.5c0 .04.04.07.07.07h12.87c.04 0 .07-.03.07-.07v-2.5h1.31v2.5c0 .77-.63 1.38-1.38 1.38H32.34c-.77 0-1.38-.63-1.38-1.38Zm1.87-15.66c-.3 0-.55.25-.55.55v4.42h-1.31v-4.3c0-1.04.84-1.88 1.86-1.88h9.28c.5 0 .97.2 1.32.55l2.88 2.88c.3.28.45.67.45 1.09v1.66h-1.3v-1.66a.23.23 0 0 0-.07-.16l-2.89-2.88a.56.56 0 0 0-.39-.16h-9.28Z" fill-rule="evenodd" clip-rule="evenodd"/><path d="M35.75 123.43c-.15-.16-.33-.3-.55-.4a2 2 0 0 0-.8-.14h-2.42v6.17h1.62v-2.35h.56c.67 0 1.17-.16 1.5-.48.35-.32.52-.8.52-1.44 0-.27-.03-.52-.1-.75a1.52 1.52 0 0 0-.33-.6Zm-1.38 1.93a.59.59 0 0 1-.46.2h-.31v-1.5h.3c.4 0 .62.24.62.74 0 .26-.05.45-.15.56Zm2.54-2.47v6.17h2.33c.47 0 .83-.09 1.09-.26.25-.17.46-.4.59-.68.12-.29.2-.6.23-.98a13.63 13.63 0 0 0 0-2.33 3 3 0 0 0-.23-.98 1.52 1.52 0 0 0-.6-.69 1.98 1.98 0 0 0-1.08-.25H36.9Zm2.51 1.5c.05.13.09.32.1.58a23.53 23.53 0 0 1 0 2 1.9 1.9 0 0 1-.1.6.5.5 0 0 1-.21.27.9.9 0 0 1-.38.07h-.32v-3.87h.32a1 1 0 0 1 .38.06c.1.06.16.14.2.28Zm4.27 2.13h1.91v-1.26h-1.9v-1.06h2.04v-1.31h-3.66v6.17h1.61v-2.54Z"/></g><rect fill="#fff" width="88.03" height="34.91" x="21.19" y="64.36" stroke="#DDE0E4" stroke-width=".5" rx="1.5"/><path d="M80.23 84.7v-4.22h1.48v5.54h-1.4V84.7Zm.17-1.14.43-.01c0 .37-.04.7-.13 1.03-.08.31-.2.58-.38.82a1.8 1.8 0 0 1-1.56.72c-.27 0-.52-.04-.75-.11-.22-.08-.42-.2-.58-.36a1.76 1.76 0 0 1-.38-.64 2.97 2.97 0 0 1-.13-.95v-3.58h1.47v3.6c0 .15.02.3.06.4.04.12.1.2.17.28.07.07.15.12.25.15s.2.05.32.05c.3 0 .55-.06.72-.18.18-.13.3-.3.37-.5.08-.22.12-.46.12-.72Zm-7.87-1.9v4.36h-1.48v-5.53h1.39l.09 1.18Zm-.22 1.4h-.4c0-.41.06-.78.16-1.1.1-.34.26-.62.45-.85a1.91 1.91 0 0 1 1.57-.73c.26 0 .5.04.7.12.22.07.4.2.56.35.16.17.28.38.36.65.08.27.13.6.13 1v3.52h-1.5V82.5c0-.25-.02-.44-.1-.58a.57.57 0 0 0-.29-.28 1.18 1.18 0 0 0-.48-.1 1.03 1.03 0 0 0-.87.45c-.1.1-.17.3-.22.4a2.9 2.9 0 0 0-.07.6Zm-4.33 3.06a3.1 3.1 0 0 1-1.16-.2 2.54 2.54 0 0 1-1.6-2.48v-.2c0-.42.06-.8.18-1.15a3 3 0 0 1 .5-.9c.23-.27.5-.46.83-.6.32-.14.68-.2 1.08-.2s.74.06 1.05.19c.3.13.55.3.76.55.2.24.36.52.47.86.1.33.16.7.16 1.1v.62h-4.4v-.98h2.95v-.12c0-.2-.04-.38-.1-.54a.87.87 0 0 0-.34-.4 1.06 1.06 0 0 0-.56-.14c-.2 0-.36.05-.5.13a1 1 0 0 0-.35.36c-.08.15-.15.33-.2.54-.03.2-.05.43-.05.68v.2c0 .22.03.43.1.62a1.33 1.33 0 0 0 .7.8c.15.07.34.1.56.1a1.6 1.6 0 0 0 1.34-.62l.72.78a2.54 2.54 0 0 1-1.2.86c-.27.1-.59.14-.94.14Zm-10.94-7.55h1.3l1.92 5.47 1.91-5.47h1.3l-2.7 7.45h-1.03l-2.7-7.45Zm-.7 0h1.3l.23 5.33v2.12h-1.53v-7.45Zm6.54 0h1.3v7.45h-1.54V83.9l.24-5.33Z" fill="#3E4957"/><g fill="#3E4957" fill-rule="evenodd" clip-path="url(#c)" clip-rule="evenodd"><path d="M34.07 73.74h9.71l.84 3.94a5.82 5.82 0 1 1-11.39 0l.84-3.94Zm1.06 1.31-.62 2.9a4.5 4.5 0 1 0 8.82 0l-.6-2.9h-7.6Z"/><path d="M38.27 90.44v-6.39h1.31v6.4h-1.3Z"/><path d="M43.1 91.1h-8.35v-1.3h8.35v1.31Zm.88-12.05h-10.1v-1.31h10.1v1.3Z"/></g><rect width="88.03" height="34.91" x="116.8" y="106.85" stroke="#DDE0E4" stroke-width=".5" rx="1.5"/><path d="M138.41 119.7h2.44a5.13 5.13 0 1 1 0 10.26h-2.44v-1.75h2.44a3.39 3.39 0 1 0 0-6.77h-2.44v-1.75Zm-11.27 5.13a5.13 5.13 0 0 1 5.13-5.14h2.47v1.75h-2.47a3.38 3.38 0 1 0 0 6.78h2.47v1.74h-2.47a5.13 5.13 0 0 1-5.13-5.13Z" fill="#3E4957" fill-rule="evenodd" clip-rule="evenodd"/><path d="M141.15 125.7h-9.17v-1.74h9.17v1.74Z" fill="#3E4957" fill-rule="evenodd" clip-rule="evenodd"/><path d="M171.56 120.48v7.86h-1.47v-7.86h1.47Zm3.49 2.32-2.4 2.75-1.3 1.3-.53-1.06 1.02-1.3 1.44-1.8h1.77Zm-1.53 5.54-1.64-2.56 1.02-.89 2.32 3.45h-1.7Zm-7.86-4.35v4.3h-1.48v-5.58h1.38l.1 1.18Zm-.22 1.3h-.4c0-.4.06-.79.16-1.1.1-.35.26-.63.45-.86a1.9 1.9 0 0 1 1.57-.73c.26 0 .5.04.7.12.22.07.4.2.56.35.16.17.28.38.36.65.08.27.13.6.13 1v3.52h-1.5v-3.53c0-.25-.02-.44-.1-.58a.58.58 0 0 0-.3-.28c-.12-.06-.3-.1-.47-.1a1.03 1.03 0 0 0-.88.45 2.35 2.35 0 0 0-.28 1.08Zm-2.44-2.5v5.52h-1.48v-5.53H163Zm-1.57-1.46a.7.7 0 0 1 .22-.53.85.85 0 0 1 .6-.2c.25 0 .45.06.6.2.16.14.23.32.23.53 0 .22-.07.4-.23.53a.84.84 0 0 1-.6.22.85.85 0 0 1-.6-.22.7.7 0 0 1-.22-.53Zm-.78 5.78v1.2h-3.74v-1.2h3.75Zm-3.25-6.25v7.45h-1.53v-7.45h1.53Zm70.41 82.4.02 3.7-.58.01-.01-3.72h.57Zm9.56-.06.01 3.72h-.57l-.02-3.72h.58Zm24.51-.08 2.26 6.62-.54.18-2.26-6.6.54-.2Zm9.47-3.23 2.26 6.61-.55.2-2.26-6.6.55-.2Z" fill="#3E4957"/><path d="m237.84 216.54-26.67.17c0-.3.05-.6.12-1 .6-2.8 3.3-3.6 8.14-6 5.68-2.84 7.66-4.64 9.65-3.31.93.6.85 1.24 1.86 1.7 2.6 1.2 4.77-2.03 6.21-1.18.9.52 1.57 2.68.7 9.72Z" fill="#9B27AF"/><path d="m210.82 217.08 27.32-.17.04-.32c1-8-.02-9.6-.87-10.1-.8-.46-1.68.01-2.62.52-1.1.6-2.31 1.25-3.62.65a2.07 2.07 0 0 1-.9-.77 3.52 3.52 0 0 0-.91-.9c-1.7-1.14-3.34-.25-6.6 1.52-.97.53-2.07 1.14-3.4 1.8-.81.42-1.6.8-2.27 1.12-3.45 1.67-5.52 2.67-6.05 5.2-.07.36-.11.72-.12 1.08v.37Zm26.71-.91-26 .16c.03-.18.05-.36.1-.54.44-2.2 2.29-3.1 5.65-4.7a118 118 0 0 0 2.3-1.2c1.32-.68 2.42-1.28 3.4-1.8 3.12-1.7 4.56-2.48 5.92-1.57.3.2.55.45.75.75.25.34.52.7 1.15.98 1.6.74 3.05-.04 4.2-.66.81-.44 1.51-.8 1.98-.54.58.34 1.4 1.97.55 9.03Z" fill="#3E4957"/><path d="m230.14 211.96-1.16-.7-2.03 5.3 1.16.7 2.1-5.3Z" fill="#fff"/><path d="m228.25 217.67 2.24-5.84-1.66-1-2.24 5.85 1.66.99Zm1.53-5.59-1.82 4.74-.66-.39 1.82-4.74.66.4Z" fill="#3E4957"/><path d="m232.97 211.3-1.16-.69-2.44 6.36 1.16.7 2.44-6.37Z" fill="#fff"/><path d="m230.68 218.08 2.64-6.9-1.66-.99-2.65 6.9 1.67 1Zm1.93-6.65-2.23 5.8-.66-.38 2.23-5.8.66.38Z" fill="#3E4957"/><path d="m236.8 219.14-26.54.27a1.4 1.4 0 0 1-1.43-1.4v-.61a1.41 1.41 0 0 1 1.4-1.43l26.54-.26c.78 0 1.42.62 1.43 1.4v.6a1.4 1.4 0 0 1-1.4 1.43Z" fill="#fff"/><path d="M210.98 220h.01l26.55-.17a1.7 1.7 0 0 0 1.69-1.7v-.62a1.7 1.7 0 0 0-1.71-1.69l-26.55.17a1.7 1.7 0 0 0-1.7 1.7v.62a1.7 1.7 0 0 0 1.7 1.69Zm26.55-.75-26.54.17a1.13 1.13 0 0 1-.8-.32 1.12 1.12 0 0 1-.33-.79v-.61a1.12 1.12 0 0 1 1.1-1.13l26.56-.17a1.12 1.12 0 0 1 1.13 1.11v.62a1.12 1.12 0 0 1-1.11 1.12Zm-13.82-6.74c0-.02.33-2.8-2.38-3.7l-.14.5c2.2.77 2 3.04 2 3.13l.5.07Zm-2.98 1.03c0-.03.33-2.81-2.38-3.71l-.15.5c2.3.77 2.05 3.04 2.04 3.13l.49.08Z" fill="#3E4957"/><path d="M234 216.43c0-.06.23-5.48 4.25-6.61l-.12-.52c-4.4 1.24-4.62 7.05-4.63 7.1l.5.03Z" fill="#3E4957"/><path d="m261.93 216.42 26.66-.08a5.47 5.47 0 0 0-.2-1c-.63-2.82-3.35-3.58-8.2-6-5.7-2.8-7.7-4.6-9.7-3.25-.9.62-.83 1.25-1.83 1.73-2.6 1.22-4.8-2-6.23-1.13-.9.54-1.55 2.7-.6 9.73Z" fill="#9B27AF"/><path d="M288.94 216.32a5.5 5.5 0 0 0-.13-1.07c-.55-2.52-2.64-3.5-6.1-5.13l-2.3-1.1c-1.3-.66-2.4-1.25-3.4-1.77-3.2-1.74-4.9-2.62-6.6-1.47-.3.25-.6.56-.9.92-.2.3-.4.55-.8.78-1.3.6-2.54-.04-3.62-.62-.95-.5-1.84-.97-2.63-.5-.85.52-1.85 2.12-.77 10.1l.03.33 27.3-.18v-.37Zm-26.24-9.3c.47-.3 1.17.08 1.98.5 1.17.62 2.61 1.39 4.2.63.64-.3.9-.65 1.16-1 .2-.28.44-.54.73-.74 1.36-.93 2.8-.16 5.93 1.5 1 .53 2.1 1.13 3.43 1.78l2.31 1.1c3.37 1.6 5.23 2.47 5.7 4.63l.1.54-26 .08c-.93-7.04-.1-8.68.46-9.03Z" fill="#3E4957"/><path d="m269.58 211.77 1.16-.7 2.08 5.27-1.15.7-2.09-5.27Z" fill="#fff"/><path d="m271.52 217.46 1.66-1-2.3-5.82-1.65 1 2.3 5.82Zm.94-1.25-.65.4-1.87-4.72.66-.5 1.86 4.72Z" fill="#3E4957"/><path d="m266.75 211.14 1.15-.7 2.5 6.33-1.15.7-2.5-6.33Z" fill="#fff"/><path d="m269.1 217.9 1.66-1-2.7-6.88-1.67 1 2.72 6.88Zm.95-1.25-.66.4-2.28-5.79.65-.4 2.29 5.8Z" fill="#3E4957"/><path d="m262.25 215.99 26.55-.08c.78 0 1.4.62 1.41 1.4v.62c0 .77-.62 1.4-1.4 1.4l-26.55.1c-.78 0-1.4-.63-1.42-1.41v-.62c0-.77.63-1.4 1.4-1.4Z" fill="#fff"/><path d="m262.25 219.72 26.56-.09a1.7 1.7 0 0 0 1.69-1.7v-.61a1.7 1.7 0 0 0-1.7-1.7l-26.55.09a1.7 1.7 0 0 0-1.7 1.7v.61a1.7 1.7 0 0 0 1.7 1.7Zm26.55-3.52a1.12 1.12 0 0 1 1.12 1.11v.62a1.12 1.12 0 0 1-1.12 1.12l-26.55.08a1.12 1.12 0 0 1-1.12-1.1v-.62a1.1 1.1 0 0 1 .33-.8 1.12 1.12 0 0 1 .8-.23l26.54-.08Zm-12.8-3.93c0-.03-.35-2.81 2.35-3.74l.15.5a2.9 2.9 0 0 0-2 3.16l-.5.08Zm3 .99c0-.03-.36-2.8 2.34-3.73l.15.5c-2.3.8-2.01 3.06-2 3.15l-.5.08Z" fill="#3E4957"/><path d="M265.77 216.28c0-.06-.28-5.48-4.32-6.57l.11-.52c4.4 1.2 4.7 7 4.7 7.06l-.5.03Z" fill="#3E4957"/><path d="M185.61 86.7c.08.01.13.04.15.02.03-.04-.44-.26-.52-.62-.08-.33.17-.79.51-.92.5-.18 1.13.33 1.15.3.02-.03-.7-.3-.75-.74-.03-.27.18-.48.22-.53.37-.38.98-.21 1-.2.45.2.73.6.72.6-.05.1-2.97-2.2-2.53-3.4a.7.7 0 0 1 .35-.32c.55-.25 1.33.48 3 1.98.4.38 1.18 1.09 2.22 2.03-.12-.6-.32-1.96.45-2.95.1-.15.46-.6.76-.52.36.09.4.86.53 1.6a9.03 9.03 0 0 0 1.8 3.78 9.05 9.05 0 0 0 2.37 2.22l-2.96 6.86c-.25-.32-.68-.86-1.26-1.48a28.05 28.05 0 0 0-5.76-4.6c-.46-.22-2.2-1.08-2.26-2.2a.8.8 0 0 1 .17-.57.72.72 0 0 1 .64-.23Z" fill="#fff"/><path d="m194.15 96.35 3.25-7.54-.2-.1a8.82 8.82 0 0 1-2.3-2.1 8.83 8.83 0 0 1-1.75-3.63l-.07-.46c-.1-.7-.2-1.27-.67-1.4-.47-.1-.9.44-1.06.64-.56.72-.67 1.6-.62 2.38l-1.64-1.5-.06-.05c-1.73-1.58-2.53-2.3-3.24-1.98a1 1 0 0 0-.5.55c-.3.8.54 1.87 1.34 2.65-.17.05-.34.15-.47.29a.95.95 0 0 0-.3.75l.02.1a.91.91 0 0 0-.23.05c-.47.17-.8.77-.69 1.25.03.1.08.22.14.3a.98.98 0 0 0-.59 1.06c.05.86.86 1.68 2.43 2.45.21.12 3.2 1.88 5.68 4.52.44.46.85.96 1.24 1.46l.3.4Zm2.52-7.32-2.66 6.2c-.3-.39-.64-.76-.98-1.13a27.98 27.98 0 0 0-5.82-4.63h-.02c-1.79-.9-2.09-1.63-2.1-1.98a.54.54 0 0 1 .1-.37.45.45 0 0 1 .36-.14l.06-.28-.06.28.05.01c.22 0 .34-.1.4-.1a.34.34 0 0 0-.17-.5c-.1-.1-.28-.3-.3-.4a.6.6 0 0 1 .32-.6c.26-.1.66.11.81.2a.39.39 0 0 0 .32.08l.12-.04.06-.1c.06-.12.08-.3-.2-.46-.12-.06-.5-.26-.52-.46a.4.4 0 0 1 .14-.3c.2-.2.51-.17.65-.14.36.3.63.5.64.5.2.14.34.08.42 0l.12-.1-.04-.17c-.04-.16-.4-.6-.9-.76-.78-.7-1.86-1.86-1.64-2.46a.4.4 0 0 1 .2-.23c.37-.17 1.26.65 2.61 1.88l.06.05 2.24 2.03.66.6-.19-.87c-.13-.65-.26-1.86.4-2.7.32-.43.45-.43.46-.43.1.07.2.6.23.9l.08.5c.35 1.84 1.3 3.11 1.85 3.9a9.32 9.32 0 0 0 2.25 2.12Z" fill="#3E4957"/><path d="M268.89 122.97c.21.75.29 1.53.23 2.31a6 6 0 0 1-.1 1.04c-.07.4-.16.74-.22 1-.05.27-.03.42.05.5.2.22.8-.08 1.17-.36.77-.63.9-1.72.93-2.16.47.9.84 1.63 1.1 2.16.86 1.73 1.29 2.74 1.8 2.68a.5.5 0 0 0 .26-.13c.83-.75-.8-3.9-.74-3.94.1.16.18.32.25.48 1 2.26 1.52 3.4 2.15 3.44a.5.5 0 0 0 .39-.1c.5-.4-.08-2-.42-2.9-.32-.9-.65-1.5-.6-1.5.05-.08.45.6.7 1 .73 1.2.95 1.84 1.3 1.83.19 0 .3-.2.35-.24.74-1.04-1.48-4.09-1.44-4.12.03 0 .57 1.34 1.4 1.4.06 0 .3.01.44-.14.25-.3-.17-1.04-.51-1.6-1.42-2.28-2.76-3.2-3.98-5.24-.3-.5-.5-.9-.6-1.13l-4.36 4.53c.18.35.34.71.45 1.1Z" fill="#fff"/><path d="M273.8 130.43a.7.7 0 0 0 .1 0 .8.8 0 0 0 .4-.2c.24-.2.34-.53.34-.9.37.6.7.91 1.11.95a.78.78 0 0 0 .6-.16c.41-.35.34-1.08.1-1.94.22.35.42.53.72.52.14 0 .36-.07.56-.36.43-.6.13-1.61-.37-2.62l.08.01c.38.03.57-.11.68-.23.36-.43-.03-1.18-.5-1.93a21.05 21.05 0 0 0-2.1-2.76 13.99 13.99 0 0 1-2.47-3.5l-.17-.35-4.8 4.98.1.18a6.18 6.18 0 0 1 .66 3.17v.1a7.64 7.64 0 0 1-.3 1.98c-.06.25-.1.56.1.77.41.42 1.27-.1 1.56-.34.5-.4.76-.97.9-1.5l.7 1.4.25.52c.75 1.5 1.14 2.3 1.75 2.3Zm-.42-4.65a.3.3 0 0 0-.1.02l-.12.04-.05.12c-.06.12-.04.17.12.55 1 2.44.92 3.18.69 3.4a.22.22 0 0 1-.1.04c-.26.02-.74-.96-1.25-2l-.26-.53c-.35-.72-.72-1.45-1.1-2.17l-.48-.9-.06 1.03c-.04.5-.2 1.43-.84 1.95a1.7 1.7 0 0 1-.77.38c0-.08 0-.17.03-.25l.07-.33.15-.66c.06-.36.1-.72.1-1.08v-.09a6.85 6.85 0 0 0-.63-3.27l3.93-4.08.43.78c.62 1.04 1.26 1.77 1.94 2.56.68.78 1.34 1.55 2.05 2.68.65 1.04.54 1.23.53 1.25 0 0-.05.04-.2.03-.14 0-.38-.1-.7-.47l-.36-.6-.07-.1a.33.33 0 0 0-.2-.2l-.12-.05-.22.12-.03.12a.3.3 0 0 0 0 .12 4.78 4.78 0 0 0 .53.87c1.22 2.02 1.14 2.74.96 3-.08.1-.12.1-.12.1-.1 0-.33-.42-.54-.79l-.51-.89-.43-.69c-.23-.33-.4-.58-.65-.44-.27.14-.17.35.03.8.12.27.28.63.44 1.05.56 1.5.73 2.36.5 2.55a.27.27 0 0 1-.18.03c-.47-.05-1.08-1.4-1.9-3.28h-.12l-.21-.45c-.08-.18-.18-.2-.28-.2Z" fill="#3E4957"/><path d="M234.81 76.32a3.9 3.9 0 0 1-2.2-1.82c-.37-.7-.51-1.5-.41-2.27-.32-.13-.72-.35-.75-.65-.03-.35.45-.6.74-.86.93-.8.7-2.2.84-3.44.2-1.63 1.1-3.66 2.56-4.62 1.73-1.14 4.46-.76 6.17.58 2.7 2.11 2.2 6.3 1.3 8.6a9.3 9.3 0 0 1-3.39 4.2l.65 5.17a4.03 4.03 0 0 1-2.7 1.36 4.1 4.1 0 0 1-3.74-2.16l.93-4.1Z" fill="#fff"/><path d="m237.41 82.87.23-.01a4.3 4.3 0 0 0 2.9-1.45l.08-.1-.65-5.14a9.52 9.52 0 0 0 3.35-4.22c.81-2.07 1.57-6.61-1.39-8.94-1.9-1.49-4.75-1.75-6.5-.6-1.6 1.05-2.5 3.24-2.69 4.84-.03.3-.05.63-.06.93-.04.93-.07 1.8-.68 2.32l-.2.17c-.3.23-.68.51-.64.94.03.31.27.58.73.8a4.04 4.04 0 0 0 2.58 4.1l-.9 4 .06.1a4.44 4.44 0 0 0 3.78 2.3Zm2.6-1.75a3.7 3.7 0 0 1-2.4 1.16 3.82 3.82 0 0 1-3.4-1.91l1-4.24-.21-.08a3.58 3.58 0 0 1-2.04-1.68 3.54 3.54 0 0 1-.4-2.1l.04-.22-.2-.09c-.55-.22-.58-.38-.58-.4-.01-.12.23-.3.39-.43l.25-.2c.8-.68.82-1.72.86-2.72l.04-.9c.17-1.4 1-3.4 2.43-4.4 1.56-1 4.12-.7 5.83.6 2.7 2.1 1.97 6.39 1.2 8.3a9 9 0 0 1-3.28 4.09l-.14.1.64 5.22Z" fill="#3E4957"/><path d="M244.9 203.82c-.8-18.54-1.62-37.07-2.43-55.6L255 203.76l23.64-.22-24.88-85.28-30.05.96-2.7 84.7 23.9-.11Z" fill="#9B27AF"/><path d="M191.98 95.53a55.2 55.2 0 0 0 11.29 9.66c2.26 1.45 3.92 2.5 5.7 3.14.77.28 1.56.48 2.38.6 1.75.24 3.54.15 5.26-.27a20.3 20.3 0 0 0 7.7-3.94l-2.2 12.05a2.85 2.85 0 0 0 2.9 3.35l27.9-.54a2.85 2.85 0 0 0 2.55-3.98l-1.92-4.34 13.7 12.45 9.2-6.17a288.02 288.02 0 0 0-19.4-24.2 138.71 138.71 0 0 0-11.68-11.45 124.75 124.75 0 0 0-5.05-4.11 3.92 3.92 0 0 1-2.76 1.24c-2.07.02-3.2-1.74-3.28-1.84a394.42 394.42 0 0 1-24.4 15.44L196.9 87l-4.96 8.53Z" fill="#fff"/><path d="m267.13 124.08.19-.13 6.8-4.55 2.65-1.78-.17-.25c-3.78-5.23-11.33-15.34-19.44-24.2a141.13 141.13 0 0 0-11.7-11.5c-1.66-1.41-3.36-2.8-5.05-4.12l-.21-.16-.18.2a3.64 3.64 0 0 1-2.56 1.15h-.02c-1.91 0-2.97-1.65-3.01-1.72l-.16-.25-.25.17a379.44 379.44 0 0 1-24.26 15.36l-12.96-5.67-5.17 8.94.14.16a55.3 55.3 0 0 0 11.34 9.7c2.42 1.56 4 2.55 5.76 3.18.79.28 1.6.48 2.44.6 1.79.25 3.6.16 5.37-.27 2.42-.6 4.9-1.8 7.2-3.53l-2.07 11.31a3.13 3.13 0 0 0 3.14 3.7l27.87-.54a3.13 3.13 0 0 0 2.8-4.4l-1.36-3.1 12.87 11.7Zm8.82-6.6-2.15 1.43-6.62 4.43-14.54-13.2 2.45 5.58a2.56 2.56 0 0 1-2.29 3.58l-27.86.54a2.56 2.56 0 0 1-2.56-3.01l2.35-12.82-.6.5a19.78 19.78 0 0 1-7.59 3.9c-1.68.49-3.43.5-5.15.3-.8-.1-1.57-.3-2.33-.6-1.7-.56-3.25-1.53-5.64-3.06a55.17 55.17 0 0 1-11.09-9.45l4.7-8.12L209.8 93l.12-.08a373.92 373.92 0 0 0 24.2-15.3 4.33 4.33 0 0 0 3.32 1.75h.03a4.18 4.18 0 0 0 2.78-1.15c1.63 1.26 3.25 2.59 4.82 3.94 3.66 3.15 7.7 7.1 11.66 11.44 7.97 8.7 15.4 18.63 19.22 23.92Zm-43.77-54.76c0 .14-.01 1.4.82 2.3 1 1.07 1.98.68 2.9 1.73 1.05 1.2.75 2.97 1.16 3 .37.01.44-1.4 1.19-1.58.52-.1 1.23.41 1.4 1.06.16.63-.24 1.17-.41 1.42-.5.7-.92.53-1.4 1.07-.74.87-.6 2.36-.17 3.33.2.46.4.88.78 1.1 1.58.91 5.1-1.73 7.02-4.6 1.16-1.74 2.65-3.96 1.8-6.4-.93-2.63-3.88-3.53-4.3-3.66-.2-.4-1.5-3-4.16-3.5-3.2-.59-6.58 2.2-6.63 4.63Zm1.65 7.24c-.25-.09-.36-.43-.24-.75.12-.33.4-.52.66-.43.25.09.36.43.25.75-.12.33-.42.52-.67.43Z" fill="#3E4957"/><path d="M235.1 68.03a.17.17 0 0 0 .16-.1l.01-.06a.17.17 0 0 0-.04-.13 1.4 1.4 0 0 0-1.66-.36.17.17 0 0 0-.09.23c.02.04.06.07.1.1h.13a1.06 1.06 0 0 1 1.26.26.18.18 0 0 0 .13.06Zm2.87 1.52c-.03.2.17.27.16.5-.01.31-.33.49-.3.55.05.1 1.1-.18 1.18-.8.03-.28-.13-.66-.43-.7a.6.6 0 0 0-.61.45Zm20.5 39.31a3.92 3.92 0 1 1 0-7.83 3.92 3.92 0 0 1 0 7.83Zm-49.57-1.19c0 .22.03.45.06.67a12 12 0 0 0 2.4.6c1.75.24 3.53.14 5.25-.28a3.94 3.94 0 0 0-1.73-4.34 3.92 3.92 0 0 0-5.98 3.35Zm47.93 92.13a845.2 845.2 0 0 1 17.65-.08h.38l-22.14-75.86-24.48.03a.3.3 0 0 0-.3.28.29.29 0 0 0 .3.3l24.04-.04 21.8 74.7c-2.93 0-16.7 0-17.3.1a.3.3 0 0 0-.2.1.3.3 0 0 0-.06.2c0 .09.04.16.1.2a.3.3 0 0 0 .2.08v-.01Zm-33.1.15 18.36-.08a.29.29 0 0 0 .3-.3.3.3 0 0 0-.3-.28l-17.8.08 1.3-55.48a.29.29 0 0 0-.6-.1l-1.35 56.06Z" fill="#3E4957"/><path d="M231.82 139.6h.05a4.33 4.33 0 0 0 4.3-4.34l-.03-7.16-8.68.04.03 7.17a4.33 4.33 0 0 0 4.33 4.3Zm.01-.57h-.01a3.75 3.75 0 0 1-3.75-3.72l-.03-6.6 7.53-.03.03 6.6a3.74 3.74 0 0 1-3.73 3.75h-.04Zm-6.8-35.12a.3.3 0 0 0 .24-.13 149.27 149.27 0 0 1 4.06-4.96.3.3 0 0 0-.01-.23.3.3 0 0 0-.18-.15.29.29 0 0 0-.22.03 158.55 158.55 0 0 0-4.13 5 .3.3 0 0 0 .24.45Zm-14.62-6.98a.3.3 0 0 0 .28-.36 18.56 18.56 0 0 1-.5-3.4.29.29 0 0 0-.4-.14.29.29 0 0 0-.16.27 17.9 17.9 0 0 0 .5 3.4.3.3 0 0 0 .28.23Zm56.78 23.62a.3.3 0 0 0 .18-.06l5.5-4.15c.06-.05.1-.11.12-.2a.3.3 0 0 0-.06-.2.29.29 0 0 0-.4-.06l-5.51 4.15a.3.3 0 0 0-.1.14.28.28 0 0 0 0 .18c.02.06.06.1.1.14.05.04.11.06.17.06Zm-72.75-24.48a.3.3 0 0 0 .26-.15l3.63-6.55a.3.3 0 0 0 .03-.23.3.3 0 0 0-.54-.05l-3.63 6.55a.29.29 0 0 0 .25.43Zm57.48 11.8h.06a.29.29 0 0 0 .23-.35c0-.18-3.1-6.69-5.6-12.11a.3.3 0 0 0-.36-.14.29.29 0 0 0-.14.38 1131.78 1131.78 0 0 1 5.74 12.16c.04.03.09.06.16.06Zm-.3-.23v.02-.02Z" fill="#3E4957"/></g><defs><clipPath id="a"><path d="M.5 0h293v220H.5z" fill="#fff"/></clipPath><clipPath id="b"><path d="M29.49 115.23H48.7v19.22H29.5z" fill="#fff"/></clipPath><clipPath id="c"><path d="M29.49 73.33H48.7v17.46H29.5z" fill="#fff"/></clipPath></defs></svg>