<svg xmlns="http://www.w3.org/2000/svg" fill="none" viewBox="0 0 305 220"><path d="M182.07 46.77c-6.7-6.47-12.76-14.67-25.98-26.83C142.87 7.78 123.52-3.3 87.87 7.2 52.2 17.7 21.28 48.96 29.27 109.83c5.6 42.6 41.46 83.56 88.67 99.03 47.6 15.6 97.15 3.45 132.11-15.65 34.97-19.1 45.72-58.14 39.1-81.95-6.6-23.8-19.85-37.1-51.55-41.72-31.7-4.62-41.56-9.34-55.53-22.78Z" fill="#FDF5FF" opacity=".8"/><path d="m159.65 45.86.25-.43-.25.43c8.37 4.85 15.26 7.85 24.08 9.25 8.8 1.4 19.48 1.22 35.42-.27 15.88-1.5 27.72.2 37.07 4.85 9.34 4.54 16.24 12.2 22.18 22.82 11.81 21.14 10.45 60.92-18.9 87.3-29.48 26.47-74.66 49.66-124.32 45.82-49.28-3.8-93.4-34.7-108.62-74.1-10.89-28.2-10.63-51.55-3.69-70.13C29.82 52.85 43.47 39 59.5 29.82c16.03-9.17 29.33-12.22 40.55-11.92 11.21.31 20.4 3.96 28.17 8.23a240.7 240.7 0 0 1 18.55 11.32l3.25 2.18c3.47 2.34 6.54 4.4 9.63 6.2Z" stroke="#3E4957" opacity=".8"/><path d="M29.5 54.43h234v141.4a3.6 3.6 0 0 1-3.6 3.6H33.1a3.6 3.6 0 0 1-3.6-3.6V54.42Z" fill="#FBFBFB" stroke="#3E4957"/><rect fill="#F5F5F5" width="197.4" height="48.13" x="48.56" y="78.79" stroke="#DDE0E4" stroke-width=".56" rx="1.96"/><path d="M173.6 102.76v5.5h-1.19v-6.87h1.12l.06 1.37Zm-.25 1.8-.54-.01c0-.47.06-.9.18-1.3s.3-.75.53-1.05c.23-.3.52-.53.87-.69a2.8 2.8 0 0 1 1.2-.24c.3 0 .6.04.8.14a1.8 1.8 0 0 1 1.16 1.17c.12.3.18.67.18 1.1v4.58h-1.17v-4.52c0-.36-.06-.65-.18-.86a1.06 1.06 0 0 0-.5-.47c-.23-.1-.49-.15-.78-.15-.34 0-.63.06-.86.18-.24.12-.42.3-.56.5a2.3 2.3 0 0 0-.3.75c-.07.28-.1.57-.1.88Zm4.45-.64-.78.24a3.22 3.22 0 0 1 .7-2.01c.24-.27.53-.5.86-.64.34-.16.73-.24 1.17-.24.36 0 .69.04.97.14a1.8 1.8 0 0 1 1.18 1.22c.1.31.15.69.15 1.12v4.51h-1.18v-4.53c0-.38-.06-.68-.2-.9a.96.96 0 0 0-.5-.44 2.03 2.03 0 0 0-1.45 0c-.2.09-.37.21-.5.37a1.6 1.6 0 0 0-.31.52c-.07.2-.1.41-.1.64Zm-13.1.98v-.14c0-.5.08-.96.22-1.38a3.03 3.03 0 0 1 1.61-1.85c.38-.18.81-.26 1.29-.26a3.02 3.02 0 0 1 2.3 1c.27.31.48.68.62 1.1.14.43.22.9.22 1.39v.14c0 .5-.08.96-.22 1.38-.14.42-.35.8-.63 1.11a2.86 2.86 0 0 1-2.28 1 2.94 2.94 0 0 1-2.91-2.1 4.25 4.25 0 0 1-.22-1.39Zm1.18-.14v.14c0 .35.04.67.12.97.08.3.2.57.36.8.16.24.37.42.62.56.24.13.53.2.85.2.32 0 .6-.07.85-.2.24-.14.44-.32.6-.56.17-.23.29-.5.37-.8.08-.3.13-.62.13-.97v-.14c0-.34-.05-.66-.13-.96-.08-.3-.2-.58-.37-.8a1.7 1.7 0 0 0-1.46-.76 1.73 1.73 0 0 0-1.46.75c-.16.22-.28.5-.36.8-.08.3-.12.62-.12.96Zm-4.92 2.66c.28 0 .54-.05.77-.17.24-.11.44-.27.6-.47.14-.2.23-.43.25-.69h1.11c-.1.4-.2.78-.5 1.14a2.82 2.82 0 0 1-2.3 1.16c-.54 0-.99-.1-1.37-.28a2.7 2.7 0 0 1-.96-.74 3.37 3.37 0 0 1-.55-1.1 4.64 4.64 0 0 1-.18-1.3v-.28c0-.46.06-.9.18-1.3.13-.42.32-.78.56-1.1.26-.32.58-.57.96-.75.38-.18.83-.27 1.35-.27.54 0 1 .1 1.4.33a2.52 2.52 0 0 1 1.33 2.15h-1.1c-.03-.28-.1-.54-.25-.76a1.55 1.55 0 0 0-1.38-.76c-.37 0-.67.07-.9.22a1.6 1.6 0 0 0-.6.57c-.14.23-.24.5-.3.8-.04.28-.07.57-.07.87v.27c0 .3.03.6.1.9.05.3.15.55.3.8.13.22.32.41.56.55.25.14.56.21.92.21Zm-6.16.22c0-.2.06-.36.19-.5.12-.14.3-.2.54-.2.24 0 .42.06.54.2.13.14.2.3.2.5a.7.7 0 0 1-.2.5c-.12.13-.3.2-.54.2-.24 0-.42-.07-.54-.2a.71.71 0 0 1-.19-.5Zm-4.06.75a2.95 2.95 0 0 1-2.93-1.99c-.15-.4-.22-.85-.22-1.33v-.27a3.57 3.57 0 0 1 .92-2.6 2.9 2.9 0 0 1 3.35-.68c.36.17.65.4.88.71.23.3.4.66.5 1.07.12.4.17.85.17 1.33v.53h-5.13v-.96h3.96v-.1c-.02-.3-.08-.6-.2-.88a1.6 1.6 0 0 0-.5-.7 1.49 1.49 0 0 0-.95-.29 1.6 1.6 0 0 0-1.32.67c-.16.22-.28.49-.37.8a4.1 4.1 0 0 0-.13 1.1v.27c0 .32.04.63.13.92.1.28.23.53.4.75.18.21.4.38.64.5a2.16 2.16 0 0 0 2.67-.74l.78.56a3 3 0 0 1-1.4 1.14c-.33.12-.73.19-1.18.19ZM146 98.5v9.75h-1.18V98.5H146Zm-7.4 4.2v8.2h-1.18v-9.52h1.08l.1 1.32Zm4.63 2.06v.13c0 .5-.06.97-.18 1.4-.12.42-.3.78-.52 1.1a2.36 2.36 0 0 1-1.97.99 2.9 2.9 0 0 1-1.15-.22 2.27 2.27 0 0 1-.85-.63c-.24-.27-.42-.6-.56-.99a5.71 5.71 0 0 1-.28-1.3v-.7c.05-.52.15-.97.29-1.37.14-.4.32-.75.55-1.03.23-.3.5-.5.84-.66a2.7 2.7 0 0 1 1.14-.23c.44 0 .82.08 1.15.25.34.17.62.4.85.71a4.9 4.9 0 0 1 .69 2.54Zm-1.18.13v-.13c0-.34-.04-.66-.1-.96a2.8 2.8 0 0 0-.34-.8 1.6 1.6 0 0 0-1.4-.75 1.73 1.73 0 0 0-1.3.56 2.59 2.59 0 0 0-.51 1.26v1.64c.07.3.19.58.34.84.15.26.35.47.6.63.26.16.58.23.97.23.3 0 .59-.06.8-.2.25-.13.44-.3.58-.55.15-.23.26-.5.33-.8.07-.3.1-.62.1-.97Zm-14.85-2.14v5.5h-1.18v-6.87h1.1l.08 1.37Zm-.25 1.8-.54-.01c0-.47.06-.9.18-1.3s.3-.75.53-1.05c.23-.3.52-.53.87-.69a2.8 2.8 0 0 1 1.1-.24c.33 0 .62.04.89.14a1.8 1.8 0 0 1 1.17 1.17c.1.3.18.67.18 1.1v4.58h-1.18v-4.52c0-.36-.05-.65-.17-.86a1.05 1.05 0 0 0-.5-.47c-.23-.1-.5-.15-.78-.15-.35 0-.64.06-.87.18-.24.12-.42.3-.56.5-.14.22-.24.47-.3.75s-.11.57-.11.88Zm4.45-.64-.78.24a3.22 3.22 0 0 1 .7-2.01 2.67 2.67 0 0 1 2.03-.88 3 3 0 0 1 .97.14c.28.1.52.25.72.45.2.2.35.46.45.77.1.3.15.69.15 1.12v4.51h-1.18v-4.53c0-.38-.06-.68-.18-.9a.96.96 0 0 0-.51-.44 2.03 2.03 0 0 0-1.46 0c-.2.09-.37.21-.5.37-.14.15-.24.32-.31.52s-.1.41-.1.64Zm-8.4 3.17v-3.54c0-.27-.05-.5-.16-.7a1.1 1.1 0 0 0-.48-.47 1.75 1.75 0 0 0-.8-.17c-.3 0-.56.05-.78.15-.22.1-.4.24-.52.4a.88.88 0 0 0-.2.54h-1.16c0-.25.06-.5.19-.73.13-.24.3-.46.55-.66.24-.2.53-.35.86-.47a3.67 3.67 0 0 1 2.45.08c.38.17.69.42.9.77.22.34.33.76.33 1.27v3.2c0 .23.02.47.06.73.04.25.1.47.18.66v.1h-1.22a4.33 4.33 0 0 1-.2-1.17Zm.2-3 .02.83h-1.18c-.34 0-.64.03-.9.08-.26.06-.48.13-.66.24a1.06 1.06 0 0 0-.55.95c0 .22.05.4.15.6.1.17.24.3.44.42.2.1.44.15.73.15a1.94 1.94 0 0 0 1.6-.79c.17-.22.26-.43.27-.64l.5.57c-.03.17-.1.37-.24.59a2.77 2.77 0 0 1-2.3 1.3c-.47 0-.88-.1-1.23-.28a1.93 1.93 0 0 1-1.1-1.77c0-.36.08-.68.22-.96.14-.28.35-.52.62-.7.27-.2.6-.34.98-.44.38-.1.8-.14 1.28-.14h1.36Zm-9.9-2.7 1.5 2.5 1.53-2.5h1.38l-2.25 3.4 2.32 3.47h-1.36l-1.6-2.57-1.58 2.56h-1.36l2.3-3.48-2.23-3.39h1.35Zm-4.84 7a2.95 2.95 0 0 1-2.93-1.99c-.15-.4-.22-.85-.22-1.33v-.27c0-.56.08-1.05.25-1.49.16-.44.38-.8.67-1.12a2.9 2.9 0 0 1 3.35-.67c.36.17.65.4.88.71.23.3.4.66.5 1.07.12.4.18.85.18 1.33v.53H106v-.96h3.95v-.2c-.02-.3-.08-.6-.19-.88a1.6 1.6 0 0 0-.5-.7 1.48 1.48 0 0 0-.96-.28 1.6 1.6 0 0 0-1.3.67c-.17.22-.3.49-.39.8a4.1 4.1 0 0 0-.13 1.1v.27c0 .33.03.64.12.93.1.28.23.53.4.75a1.92 1.92 0 0 0 1.51.69c.41 0 .76-.1 1.05-.26.3-.16.54-.4.76-.67l.7.56a3.3 3.3 0 0 1-.56.64c-.23.2-.5.37-.84.5-.33.12-.72.19-1.18.19ZM104.33 99l-3.85 10.05h-1.01L103.33 99h1Zm-3.95 0-3.85 10.05h-1.01L99.38 99h1Zm-7.3 8.63c0-.2.08-.37.2-.5.12-.14.3-.21.54-.21.24 0 .42.07.54.2.13.14.2.31.2.51a.7.7 0 0 1-.2.5c-.12.13-.3.2-.54.2-.23 0-.42-.07-.54-.2a.7.7 0 0 1-.2-.5Zm.02-5.6c0-.2.06-.37.18-.5.13-.15.3-.22.55-.22.24 0 .42.07.54.21.13.14.2.3.2.5a.7.7 0 0 1-.2.5c-.12.14-.3.2-.54.2-.24 0-.42-.06-.55-.2a.7.7 0 0 1-.18-.5Zm-2.67 4.4a1 1 0 0 0-.11-.47.97.97 0 0 0-.45-.4 3.73 3.73 0 0 0-1.02-.32 7.98 7.98 0 0 1-1.03-.28 3 3 0 0 1-.78-.4 1.54 1.54 0 0 1-.66-1.3c0-.26.05-.52.17-.76a2.25 2.25 0 0 1 1.32-1.08c.32-.1.67-.15 1.05-.15.55 0 1.02.1 1.4.29a1.99 1.99 0 0 1 1.2 1.85h-1.16a1 1 0 0 0-.17-.55 1.2 1.2 0 0 0-.5-.45 1.58 1.58 0 0 0-.77-.18c-.32 0-.6.05-.8.15a.94.94 0 0 0-.5 1.2c.05.1.13.2.24.28a5.87 5.87 0 0 0 1.28.44c.56.13 1.02.28 1.39.46.36.17.63.4.8.65.19.26.28.57.28.94a1.79 1.79 0 0 1-.73 1.47 2.7 2.7 0 0 1-.84.42c-.32.1-.7.15-1.1.15-.6 0-1.1-.1-1.52-.33-.42-.21-.74-.5-.96-.83a2 2 0 0 1-.32-1.09h1.18c.02.32.1.58.28.77.17.19.38.32.62.4a2.46 2.46 0 0 0 1.54-.01c.22-.09.4-.2.5-.35a.81.81 0 0 0 .17-.51ZM80.3 102.7v8.2h-1.2v-9.52h1.09l.1 1.32Zm4.62 2.06v.13c0 .5-.06.97-.17 1.4-.12.42-.3.78-.53 1.1a2.35 2.35 0 0 1-1.96.99 2.9 2.9 0 0 1-1.16-.22 2.27 2.27 0 0 1-.85-.63c-.23-.27-.42-.6-.56-.99a5.73 5.73 0 0 1-.28-1.3v-.7c.05-.52.15-.97.3-1.37.13-.4.31-.75.54-1.03.23-.3.52-.5.85-.66a2.7 2.7 0 0 1 1.14-.23 2.38 2.38 0 0 1 2 .96c.22.3.4.68.5 1.11.12.43.18.9.18 1.43Zm-1.18.13v-.13c0-.34-.03-.66-.1-.96a2.54 2.54 0 0 0-.34-.8 1.6 1.6 0 0 0-1.4-.75c-.3 0-.56.05-.78.15-.21.1-.4.24-.55.41a2.39 2.39 0 0 0-.58 1.26v1.64c.08.3.2.58.35.84.15.26.36.47.6.63.26.16.58.23.97.23a1.58 1.58 0 0 0 1.39-.75c.16-.23.27-.5.34-.8.08-.3.1-.62.1-.97Zm-6-3.5v.9h-3.71v-.9h3.7Zm-2.45-1.68h1.17v6.84c0 .23.04.4.1.53.08.11.17.2.29.23.1.04.23.06.37.06a2.04 2.04 0 0 0 .55-.08v.96a2.77 2.77 0 0 1-.9.13c-.3 0-.56-.06-.8-.17-.24-.12-.43-.3-.57-.58a2.4 2.4 0 0 1-.21-1.09v-6.83Zm-1.8 1.67v.9h-3.78v-.9h3.7Zm-2.54-1.67h1.17v6.84c0 .23.04.4.1.53.09.11.18.2.3.23.1.04.23.06.37.06a2.04 2.04 0 0 0 .55-.08v.96a2.77 2.77 0 0 1-.9.13c-.3 0-.55-.06-.8-.17-.23-.12-.42-.3-.56-.58a2.4 2.4 0 0 1-.21-1.09v-6.83Zm-6.41-1.2v9.8H63.4v-9.8h1.18Zm-.28 6.1h-.5a3.53 3.53 0 0 1 .79-2.33 2.54 2.54 0 0 1 2-.93c.34 0 .65.05.92.15.27.08.5.22.7.42.2.2.33.45.43.77.1.3.16.7.16 1.15v4.5H67.6v-4.51c0-.35-.06-.64-.16-.85a.98.98 0 0 0-.47-.48c-.2-.1-.45-.15-.75-.15a1.73 1.73 0 0 0-1.41.69 2.56 2.56 0 0 0-.54 1.63Zm-35.3-61.53a4.1 4.1 0 0 1 4.1-4.11h226.8a4.1 4.1 0 0 1 4.1 4.1v11.9H29v-11.9Z" fill="#3E4957"/><ellipse fill="#FBFBFB" cx="37.24" cy="47.48" rx="3.3" ry="3.29"/><ellipse fill="#FBFBFB" cx="48.37" cy="47.48" rx="3.3" ry="3.29"/><ellipse fill="#FBFBFB" cx="59.49" cy="47.48" rx="3.3" ry="3.29"/><rect fill="#9B27AF" width="196.68" height="42.28" x="48.74" y="137.51" rx="5"/><path d="M178.67 161.4v1.48h-4.92v-1.48h4.92Zm-4.3-7.76v9.24h-1.9v-9.24h1.9Zm3.66 3.77v1.44h-4.28v-1.44h4.28Zm.63-3.77v1.5h-4.9v-1.5h4.9Zm-10.12 0v9.24h-1.9v-9.24h1.9Zm2.84 0v1.5h-7.54v-1.5h7.54Zm-11.17 1.58-2.5 7.66h-2.03l3.43-9.24h1.29l-.2 1.58Zm2.1 7.66-2.53-7.66-.2-1.58h1.3l3.45 9.24h-2.03Zm-.12-3.44v1.5h-4.88v-1.5h4.88Zm-14.06-5.8h3.45c.7 0 1.3.1 1.82.32.5.2.9.52 1.18.94.27.41.4.92.4 1.53a2.54 2.54 0 0 1-.95 2.16c-.3.23-.65.41-1.06.55l-.6.32h-3v-1.48h2.22c.33 0 .6-.06.83-.18.22-.12.39-.29.5-.5.1-.2.17-.45.17-.73 0-.3-.06-.56-.17-.77a1.1 1.1 0 0 0-.5-.5c-.22-.11-.5-.17-.84-.17h-1.55v7.75h-1.9v-9.24Zm5.17 9.24-2.11-4.12h2l2.14 4.03v.1h-2.03Zm-6.28-1.48v1.48h-4.92v-1.48h4.92Zm-4.3-7.76v9.24h-1.9v-9.24h1.9Zm3.66 3.77v1.44h-4.28v-1.44h4.28Zm.63-3.77v1.5h-4.91v-1.5h4.9Zm-7.85 0v9.24h-1.9l-3.72-6.2v6.2h-1.9v-9.24h1.9l3.72 6.2v-6.2h1.9Zm-8.63 7.76v1.48h-4.92v-1.48h4.92Zm-4.3-7.76v9.24h-1.9v-9.24h1.9Zm3.66 3.77v1.44h-4.4v-1.44h4.3Zm.52-3.77v1.5h-4.9v-1.5h4.9Zm-7.72 4.41v3.66a2.9 2.9 0 0 1-.67.57c-.3.2-.7.37-1.16.51a5.75 5.75 0 0 1-3.35-.08 3.54 3.54 0 0 1-2.08-2.15 5.81 5.81 0 0 1-.3-1.9v-.59c0-.7.1-1.35.29-1.9.17-.55.44-1 .78-1.39.34-.39.75-.68 1.22-.87.48-.2 1-.3 1.58-.3.8 0 1.47.13 1.98.4.5.25.89.6 1.18 1.07.27.46.44.98.5 1.58h-1.84a2.36 2.36 0 0 0-.27-.82 1.37 1.37 0 0 0-.57-.55c-.24-.1-.55-.2-.93-.2a1.69 1.69 0 0 0-1.47.8c-.18.24-.3.55-.4.92-.08.37-.13.8-.13 1.28v.6c0 .48.05.9.14 1.28.1.37.23.68.4.93.19.23.42.42.69.54.27.13.59.2.95.2.3.01.55-.02.74-.07a1.8 1.8 0 0 0 .8-.4v-1.64h-1.74v-1.36h3.64Z" fill="#FBFBFB"/></svg>