<svg xmlns="http://www.w3.org/2000/svg" fill="none" viewBox="0 0 293 221"><path d="M118.54 170.98c6.07 6.99 11.33 15.65 23.33 28.84 12 13.2 30.17 25.83 66.4 18.34 36.21-7.49 69.6-36.04 67.1-97.26-1.76-42.83-33.62-86.56-78.97-105.87-45.73-19.46-95.84-11.48-132.14 4.62-36.3 16.1-50.4 54.05-45.97 78.28 4.4 24.23 16.3 38.56 47.3 45.78 30.9 7.23 40.3 12.74 52.9 27.27Z" fill="#FDF7FF" opacity=".8"/><path d="m129.97 174.67-.32.4.32-.4c-7.55-6.02-13.91-10-22.39-12.65-8.46-2.65-19-3.96-34.89-4.72-15.82-.75-27.24-4.1-35.78-10.08-8.53-5.97-14.24-14.62-18.59-26.08-8.65-22.82-1.7-62.44 30.9-84.7C81.94 14.09 129.64-2.74 177.96 8.1c47.93 10.77 87 47.9 96.4 89.5 6.75 29.78 3.2 53.12-6.24 70.73-9.45 17.62-24.84 29.55-41.88 36.47-17.07 6.93-30.58 8.1-41.57 6.22-10.99-1.88-19.5-6.82-26.55-12.2a237.18 237.18 0 0 1-16.66-13.94l-2.9-2.64c-3.08-2.84-5.8-5.34-8.6-7.57Z" stroke="#3E4957" opacity=".8"/><rect fill="#9B27AF" width="135.24" height="159.5" x="76.8" y=".4" rx="21.1"/><mask fill="#fff" id="a"><path d="M98.78 9.5a13.24 13.24 0 0 0-13.23 13.24v90.69c0 7.31 5.92 13.24 13.23 13.24h38.24c.36 0 .72.1 1.02.3l6.64 4.37c.61.4 1.42.4 2.04 0l6.63-4.37c.3-.2.66-.3 1.03-.3h35.2c7.3 0 13.24-5.93 13.24-13.24v-90.7c0-7.3-5.93-13.23-13.24-13.23h-90.8Z" fill-rule="evenodd" clip-rule="evenodd"/></mask><path d="M98.78 9.5a13.24 13.24 0 0 0-13.23 13.24v90.69c0 7.31 5.92 13.24 13.23 13.24h38.24c.36 0 .72.1 1.02.3l6.64 4.37c.61.4 1.42.4 2.04 0l6.63-4.37c.3-.2.66-.3 1.03-.3h35.2c7.3 0 13.24-5.93 13.24-13.24v-90.7c0-7.3-5.93-13.23-13.24-13.23h-90.8Z" fill="#FBFBFB" fill-rule="evenodd" clip-rule="evenodd"/><path d="m153.35 126.97-.54-.83.54.83Zm-8.67 4.37.54-.84-.54.84Zm2.04 0-.55-.84.55.84Zm-8.68-4.37.55-.83-.55.83ZM86.54 22.74c0-6.76 5.49-12.24 12.24-12.24v-2a14.24 14.24 0 0 0-14.23 14.24h2Zm0 90.69v-90.7h-2v90.7h2Zm12.24 12.24a12.24 12.24 0 0 1-12.23-12.24h-2c0 7.86 6.37 14.24 14.23 14.24v-2Zm38.24 0H98.78v2h38.24v-2Zm8.2 4.83-6.63-4.36-1.1 1.67 6.63 4.36 1.1-1.67Zm7.59-4.36-6.64 4.36 1.1 1.67 6.63-4.36-1.1-1.6Zm36.77-.47h-35.2v2h35.2v-2Zm12.24-12.24c0 6.76-5.48 12.24-12.24 12.24v2c7.87 0 14.24-6.38 14.24-14.24h-2Zm0-90.7v90.7h2v-90.7h-2ZM189.58 10.5c6.76 0 12.24 5.48 12.24 12.24h2c0-7.87-6.37-14.24-14.24-14.24v2Zm-90.8 0h90.8v-2h-90.8v2Zm55.12 117.3c.14-.08.3-.13.48-.13v-2c-.56 0-1.1.16-1.57.47l1.1 1.67Zm-9.78 4.37c.96.63 2.2.63 3.15 0l-1.1-1.67a.86.86 0 0 1-.95 0l-1.1 1.67Zm-7.1-4.5c.16 0 .33.05.47.14l1.1-1.67a2.86 2.86 0 0 0-1.57-.47v2Z" fill="#3E4957" mask="url(#a)"/><path d="M99.17 49.37a1.61 1.61 0 1 0 0-3.22 1.61 1.61 0 0 0 0 3.22Zm-.04 6.45a1.61 1.61 0 1 0 0-3.22 1.61 1.61 0 0 0 0 3.22Zm-.02 3.22a1.61 1.61 0 1 0 0-3.22 1.61 1.61 0 0 0 0 3.22Zm-.03 3.22a1.61 1.61 0 1 0 0-3.22 1.61 1.61 0 0 0 0 3.22Zm-.01 3.23a1.61 1.61 0 1 0 0-3.23 1.61 1.61 0 0 0 0 3.23ZM99 75.16a1.61 1.61 0 1 0 .01-3.22 1.61 1.61 0 0 0 0 3.22Zm-.04 9.67a1.61 1.61 0 1 0 0-3.23 1.61 1.61 0 0 0 0 3.23Zm-.03 3.22a1.61 1.61 0 1 0 0-3.22 1.61 1.61 0 0 0 0 3.22Z" fill="#3E4957"/><path d="M102.4 49.4a1.61 1.61 0 1 0 0-3.23 1.61 1.61 0 0 0 0 3.23Z" fill="#3E4957"/><path d="M102.37 52.62a1.61 1.61 0 1 0 0-3.23 1.61 1.61 0 0 0 0 3.23Zm-.02 3.22a1.61 1.61 0 1 0 0-3.22 1.61 1.61 0 0 0 0 3.22Zm-.1 19.34a1.61 1.61 0 1 0 0-3.22 1.61 1.61 0 0 0 0 3.22Zm-.1 12.88a1.61 1.61 0 1 0 0-3.22 1.61 1.61 0 0 0 0 3.22Zm3.4-28.98a1.61 1.61 0 1 0 0-3.22 1.61 1.61 0 0 0 0 3.22Zm0 3.22a1.61 1.61 0 1 0 0-3.22 1.61 1.61 0 0 0 0 3.22Zm-.06 6.45a1.61 1.61 0 1 0 0-3.22 1.61 1.61 0 0 0 0 3.22Z" fill="#3E4957"/><path d="M105.48 71.97a1.61 1.61 0 1 0 0-3.22 1.61 1.61 0 0 0 0 3.22Zm-.02 3.22a1.61 1.61 0 1 0 0-3.22 1.61 1.61 0 0 0 0 3.22Zm3.36-22.53a1.61 1.61 0 1 0 0-3.23 1.61 1.61 0 0 0 0 3.23Zm-.02 3.22a1.61 1.61 0 1 0 0-3.22 1.61 1.61 0 0 0 0 3.22Zm-.13 22.56a1.61 1.61 0 1 0 0-3.22 1.61 1.61 0 0 0 0 3.22Zm-.05 9.66a1.61 1.61 0 1 0 0-3.22 1.61 1.61 0 0 0 0 3.22Z" fill="#3E4957"/><path d="M112.03 55.9a1.61 1.61 0 1 0 0-3.22 1.61 1.61 0 0 0 0 3.22Zm-.03 6.44a1.61 1.61 0 1 0 0-3.22 1.61 1.61 0 0 0 0 3.22Zm-.03 3.23a1.61 1.61 0 1 0 0-3.23 1.61 1.61 0 0 0 0 3.23Zm-.04 6.44a1.61 1.61 0 1 0 0-3.2 1.61 1.61 0 0 0 0 3.3Zm-.02 3.3a1.61 1.61 0 1 0 0-3.2 1.61 1.61 0 0 0 0 3.24Z" fill="#3E4957"/><path d="M111.9 78.46a1.61 1.61 0 1 0 0-3.23 1.61 1.61 0 0 0 0 3.23Zm-.05 6.45a1.61 1.61 0 1 0 0-3.23 1.61 1.61 0 0 0 0 3.23Zm3.38-25.77a1.61 1.61 0 1 0 0-3.22 1.61 1.61 0 0 0 0 3.22Zm-.04 6.44a1.61 1.61 0 1 0 0-3.22 1.61 1.61 0 0 0 0 3.22Zm-.07 12.9a1.61 1.61 0 1 0 0-3.22 1.61 1.61 0 0 0 0 3.22Zm-.06 9.66a1.61 1.61 0 1 0 0-3.22 1.61 1.61 0 0 0 0 3.22Zm3.45-38.65a1.61 1.61 0 1 0 0-3.23 1.61 1.61 0 0 0 0 3.23Zm-.03 6.44a1.61 1.61 0 1 0 0-3.22 1.61 1.61 0 0 0 0 3.22Zm-.04 6.45a1.61 1.61 0 1 0 0-3.22 1.61 1.61 0 0 0 0 3.22Zm-.03 6.45a1.61 1.61 0 1 0 0-3.23 1.61 1.61 0 0 0 0 3.23Zm-.04 6.44a1.61 1.61 0 1 0 0-3.22 1.61 1.61 0 0 0 0 3.22Zm-.04 6.45a1.61 1.61 0 1 0 0-3.22 1.61 1.61 0 0 0 0 3.22Zm-.04 6.45a1.61 1.61 0 1 0 0-3.23 1.61 1.61 0 0 0 0 3.23Zm3.43-35.44a1.61 1.61 0 1 0 0-3.22 1.61 1.61 0 0 0 0 3.22Zm-.01 3.22a1.61 1.61 0 1 0 0-3.22 1.61 1.61 0 0 0 0 3.22Z" fill="#3E4957"/><path d="M121.67 62.4a1.61 1.61 0 1 0 0-3.22 1.61 1.61 0 0 0 0 3.22Zm-.02 3.22a1.61 1.61 0 1 0 0-3.22 1.61 1.61 0 0 0 0 3.22Zm-.02 3.23a1.61 1.61 0 1 0 0-3.23 1.61 1.61 0 0 0 0 3.23Zm-.02 3.22a1.61 1.61 0 1 0 0-3.22 1.61 1.61 0 0 0 0 3.22Zm-.02 3.22a1.61 1.61 0 1 0 0-3.22 1.61 1.61 0 0 0 0 3.22Zm0 3.22a1.61 1.61 0 1 0 0-3.22 1.61 1.61 0 0 0 0 3.22Zm-.04 3.23a1.61 1.61 0 1 0 0-3.23 1.61 1.61 0 0 0 0 3.34Zm-.03 6.45a1.61 1.61 0 1 0 0-3.23 1.61 1.61 0 0 0 0 3.23Zm3.6-61.23a1.61 1.61 0 1 0 0-3.22 1.61 1.61 0 0 0 0 3.22Zm-.1 16.12a1.61 1.61 0 1 0 0-3.22 1.61 1.61 0 0 0 0 3.22Zm-.03 3.23a1.61 1.61 0 1 0 0-3.12 1.61 1.61 0 0 0 0 3.22Zm-.04 3.33a1.61 1.61 0 1 0 0-3.23 1.61 1.61 0 0 0 0 3.22Z" fill="#3E4957"/><path d="M124.95 52.75a1.61 1.61 0 1 0 0-3.22 1.61 1.61 0 0 0 0 3.22Zm-.01 3.22a1.61 1.61 0 1 0 0-3.22 1.61 1.61 0 0 0 0 3.22Zm-.05 6.45a1.61 1.61 0 1 0 0-3.23 1.61 1.61 0 0 0 0 3.2Zm-.05 9.67a1.61 1.61 0 1 0 0-3.22 1.61 1.61 0 0 0 0 3.22Zm-.12 19.34a1.61 1.61 0 1 0 0-3.22 1.61 1.61 0 0 0 0 3.22Zm-.12 19.33a1.61 1.61 0 1 0 0-3.22 1.61 1.61 0 0 0 0 3.22Zm-.01 3.23a1.61 1.61 0 1 0 0-3.3 1.61 1.61 0 0 0 0 3.2Zm3.74-87.1a1.61 1.61 0 1 0 0-3.2 1.61 1.61 0 0 0 0 3.2Zm-.02 3.23a1.61 1.61 0 1 0 0-3.22 1.61 1.61 0 0 0 0 3.2Zm-.05 9.67a1.61 1.61 0 1 0 0-3.23 1.61 1.61 0 0 0 0 3.23Zm-.05 6.45a1.61 1.61 0 1 0 .1-3.24 1.61 1.61 0 0 0 0 3.23Z" fill="#3E4957"/><path d="M128.2 49.55a1.61 1.61 0 1 0 0-3.23 1.61 1.61 0 0 0 0 3.23Zm-.04 6.44a1.61 1.61 0 1 0 0-3.22 1.61 1.61 0 0 0 0 3.22Zm-.02 3.23a1.61 1.61 0 1 0 0-3.23 1.61 1.61 0 0 0 0 3.23Z" fill="#3E4957"/><path d="M128.12 62.44a1.61 1.61 0 1 0 0-3.23 1.61 1.61 0 0 0 0 3.23Zm-.06 9.66a1.61 1.61 0 1 0 0-3.22 1.61 1.61 0 0 0 0 3.22Zm-.02 3.23a1.61 1.61 0 1 0 0-3.23 1.61 1.61 0 0 0 0 3.23Zm-.04 6.45a1.61 1.61 0 1 0 0-3.23 1.61 1.61 0 0 0 0 3.23Zm-.06 9.67a1.61 1.61 0 1 0 0-3.22 1.61 1.61 0 0 0 0 3.22Zm-.05 9.66a1.61 1.61 0 1 0 0-3.22 1.61 1.61 0 0 0 0 3.22Zm-.02 3.22a1.61 1.61 0 1 0 0-3.22 1.61 1.61 0 0 0 0 3.22Zm-.04 6.46a1.61 1.61 0 1 0 0-3.23 1.61 1.61 0 0 0 0 3.23Zm3.75-87a1.61 1.61 0 1 0 0-3.34 1.61 1.61 0 0 0 0 3.22Zm-.03 3.1a1.61 1.61 0 1 0 0-3.22 1.61 1.61 0 0 0 0 3.23Zm-.03 6.45a1.61 1.61 0 1 0 0-3.22 1.61 1.61 0 0 0 0 3.22Zm-.02 3.23a1.61 1.61 0 1 0 0-3.22 1.61 1.61 0 0 0 0 3.22Zm-.02 3.23a1.61 1.61 0 1 0 0-3.22 1.61 1.61 0 0 0 0 3.23Z" fill="#3E4957"/><path d="M131.46 43.12a1.61 1.61 0 1 0 0-3.23 1.61 1.61 0 0 0 0 3.23Zm-.02 3.23a1.61 1.61 0 1 0 0-3.23 1.61 1.61 0 0 0 0 3.23Zm-.23 38.67a1.61 1.61 0 1 0 0-3.22 1.61 1.61 0 0 0 0 3.22Zm-.03 6.44a1.61 1.61 0 1 0 0-3.22 1.61 1.61 0 0 0 0 3.22Zm-.03 3.23a1.61 1.61 0 1 0 0-3.22 1.61 1.61 0 0 0 0 3.22Zm-.03 6.45a1.61 1.61 0 1 0 0-3.23 1.61 1.61 0 0 0 0 3.23Z" fill="#3E4957"/><path d="M131.1 104.35a1.61 1.61 0 1 0 0-3.22 1.61 1.61 0 0 0 0 3.22Zm-.03 3.23a1.61 1.61 0 1 0 0-3.22 1.61 1.61 0 0 0 0 3.22Zm3.7-77.34a1.61 1.61 0 1 0 0-3.22 1.61 1.61 0 0 0 0 3.22Zm-.12 19.34a1.61 1.61 0 1 0 0-3.22 1.61 1.61 0 0 0 0 3.22Zm-.22 35.46a1.61 1.61 0 1 0 0-3.23 1.61 1.61 0 0 0 0 3.23Zm0 3.22a1.61 1.61 0 1 0 0-3.22 1.61 1.61 0 0 0 0 3.22Zm-.05 6.45a1.61 1.61 0 1 0 0-3.22 1.61 1.61 0 0 0 0 3.22Zm3.65-70.9a1.61 1.61 0 1 0 0-3.2 1.61 1.61 0 0 0 0 3.3Zm-.03 3.3a1.61 1.61 0 1 0 0-3.2 1.61 1.61 0 0 0 0 3.23Z" fill="#3E4957"/><path d="M138 30.26a1.61 1.61 0 1 0 0-3.22 1.61 1.61 0 0 0 0 3.22Zm-.05 6.45a1.61 1.61 0 1 0 0-3.22 1.61 1.61 0 0 0 0 3.22Zm-.04 6.44a1.61 1.61 0 1 0 0-3.22 1.61 1.61 0 0 0 0 3.22Zm-.04 6.45a1.61 1.61 0 1 0 0-3.22 1.61 1.61 0 0 0 0 3.22Z" fill="#3E4957"/><path d="M137.85 52.82a1.61 1.61 0 1 0 0-3.22 1.61 1.61 0 0 0 0 3.22Zm-.2 35.46a1.61 1.61 0 1 0 0-3.23 1.61 1.61 0 0 0 0 3.23Zm-.03 3.22a1.61 1.61 0 1 0 0-3.22 1.61 1.61 0 0 0 0 3.22Zm-.02 3.23a1.61 1.61 0 1 0 0-3.23 1.61 1.61 0 0 0 0 3.23Zm-.09 16.1a1.61 1.61 0 1 0 0-3.2 1.61 1.61 0 0 0 0 3.21Zm3.72-83.77a1.61 1.61 0 1 0 0-3.23 1.61 1.61 0 0 0 0 3.23Zm-.07 12.9a1.61 1.61 0 1 0 0-3.23 1.61 1.61 0 0 0 0 3.23Zm-.06 9.66a1.61 1.61 0 1 0 0-3.22 1.61 1.61 0 0 0 0 3.22Zm-.02 3.22a1.61 1.61 0 1 0 0-3.22 1.61 1.61 0 0 0 0 3.22Zm-.2 32.23a1.61 1.61 0 1 0 .01-3.22 1.61 1.61 0 0 0 0 3.22Zm0 3.23a1.61 1.61 0 1 0 0-3.22 1.61 1.61 0 0 0 0 3.22Zm-.05 6.44a1.61 1.61 0 1 0 0-3.22 1.61 1.61 0 0 0 0 3.22Zm-.04 6.45a1.61 1.61 0 1 0-.1-3.22 1.61 1.61 0 0 0 0 3.22Zm-.13 3.22a1.61 1.61 0 1 0 0-3.22 1.61 1.61 0 0 0 0 3.22Zm-.05 9.67a1.61 1.61 0 1 0 0-3.22 1.61 1.61 0 0 0 0 3.22Zm3.77-90.22a1.61 1.61 0 1 0-.01-3.23 1.61 1.61 0 0 0-.01 3.23Zm-.06 9.67a1.61 1.61 0 1 0 0-3.23 1.61 1.61 0 0 0 0 3.23Zm-.03 3.22a1.61 1.61 0 1 0 0-3.22 1.61 1.61 0 0 0 0 3.22Zm-.04 6.44a1.61 1.61 0 1 0-.01-3.22 1.61 1.61 0 0 0-.01 3.22Zm-.02 3.23a1.61 1.61 0 1 0-.01-3.23 1.61 1.61 0 0 0-.01 3.2Z" fill="#3E4957"/><path d="M144.3 52.86a1.61 1.61 0 1 0 0-3.22 1.61 1.61 0 0 0 0 3.22Zm-.2 35.46a1.61 1.61 0 1 0 0-3.23 1.61 1.61 0 0 0 0 3.23Zm-.06 9.67a1.61 1.61 0 1 0 0-3.23 1.61 1.61 0 0 0 0 3.23Zm-.08 12.9a1.61 1.61 0 1 0 0-3.23 1.61 1.61 0 0 0 0 3.22Zm3.75-87.01a1.61 1.61 0 1 0 0-3.23 1.61 1.61 0 0 0 0 3.23Z" fill="#3E4957"/><path d="M147.69 27.1a1.61 1.61 0 1 0 0-3.23 1.61 1.61 0 0 0 0 3.23Zm-.14 22.56a1.61 1.61 0 1 0 0-3.22 1.61 1.61 0 0 0 0 3.22Z" fill="#3E4957"/><path d="M147.53 52.88a1.61 1.61 0 1 0 0-3.22 1.61 1.61 0 0 0 0 3.22Zm-.23 38.68a1.61 1.61 0 1 0 0-3.22 1.61 1.61 0 0 0 0 3.22Zm-.01 3.22a1.61 1.61 0 1 0-.1-3.22 1.61 1.61 0 0 0 0 3.22Zm-.1 6.44a1.61 1.61 0 1 0 0-3.22 1.61 1.61 0 0 0 0 3.22Zm-.07 3.23a1.61 1.61 0 1 0 .01-3.23 1.61 1.61 0 0 0 .02 3.23Zm.01 3.22a1.61 1.61 0 1 0 .02-3.22 1.61 1.61 0 0 0 .01 3.22Zm0 3.23a1.61 1.61 0 1 0 0-3.23 1.61 1.61 0 0 0 0 3.23Zm-.03 3.22a1.61 1.61 0 1 0 .01-3.22 1.61 1.61 0 0 0 .01 3.22Zm3.75-87a1.61 1.61 0 1 0 0-3.23 1.61 1.61 0 0 0 0 3.23Zm-.05 6.45a1.61 1.61 0 1 0 0-3.22 1.61 1.61 0 0 0 0 3.22Zm-.04 6.44a1.61 1.61 0 1 0 0-3.22 1.61 1.61 0 0 0 0 3.22Zm0 3.22a1.61 1.61 0 1 0 0-3.22 1.61 1.61 0 0 0 0 3.22Zm-.04 3.23a1.61 1.61 0 1 0 0-3.22 1.61 1.61 0 0 0 0 3.22Z" fill="#3E4957"/><path d="M150.78 49.68a1.61 1.61 0 1 0 0-3.22 1.61 1.61 0 0 0 0 3.22Zm-.21 35.45a1.61 1.61 0 1 0 0-3.22 1.61 1.61 0 0 0 0 3.22Zm-.04 6.45a1.61 1.61 0 1 0 0-3.22 1.61 1.61 0 0 0 0 3.22Zm-.04 6.44a1.61 1.61 0 1 0 0-3.22 1.61 1.61 0 0 0 0 3.22Zm-.04 6.45a1.61 1.61 0 1 0 0-3.23 1.61 1.61 0 0 0 0 3.23Zm0 3.22a1.61 1.61 0 1 0 0-3.22 1.61 1.61 0 0 0 0 3.22Zm-.06 6.45a1.61 1.61 0 1 0 0-3.22 1.61 1.61 0 0 0 0 3.22Zm3.77-90.22a1.61 1.61 0 1 0 0-3.23 1.61 1.61 0 0 0 0 3.23Zm-.02 3.22a1.61 1.61 0 1 0 0-3.22 1.61 1.61 0 0 0 0 3.22Zm-.05 9.67a1.61 1.61 0 1 0 0-3.23 1.61 1.61 0 0 0 0 3.23Zm-.06 9.67a1.61 1.61 0 1 0 0-3.22 1.61 1.61 0 0 0 0 3.22Zm-.05 6.44a1.61 1.61 0 1 0 0-3.22 1.61 1.61 0 0 0 0 3.22Zm-.22 38.68a1.61 1.61 0 1 0 0-3.23 1.61 1.61 0 0 0 0 3.23Zm-.02 3.22a1.61 1.61 0 1 0 0-3.22 1.61 1.61 0 0 0 0 3.22Zm-.04 6.45a1.61 1.61 0 1 0 0-3.22 1.61 1.61 0 0 0 0 3.22Zm-.08 12.89a1.61 1.61 0 1 0 0-3.22 1.61 1.61 0 0 0 0 3.22Z" fill="#3E4957"/><path d="M157.38 23.94a1.61 1.61 0 1 0 0-3.22 1.61 1.61 0 0 0 0 3.22Zm-.02 3.22a1.61 1.61 0 1 0 0-3.22 1.61 1.61 0 0 0 0 3.22Zm-.05 9.67a1.61 1.61 0 1 0 0-3.22 1.61 1.61 0 0 0 0 3.22Zm-.04 6.44a1.61 1.61 0 1 0 0-3.23 1.61 1.61 0 0 0 0 3.23Zm-.02 3.23a1.61 1.61 0 1 0 0-3.22 1.61 1.61 0 0 0 0 3.22Zm-.04 6.44a1.61 1.61 0 1 0 0-3.22 1.61 1.61 0 0 0 0 3.22Zm-.2 32.23a1.61 1.61 0 1 0 0-3.22 1.61 1.61 0 0 0 0 3.22Z" fill="#3E4957"/><path d="M157 88.4a1.61 1.61 0 1 0 0-3.23 1.61 1.61 0 0 0 0 3.22Zm-.06 9.67a1.61 1.61 0 1 0 0-3.23 1.61 1.61 0 0 0 0 3.23Zm-.04 6.44a1.61 1.61 0 1 0 0-3.12 1.61 1.61 0 0 0 0 3.22Zm-.05 9.77a1.61 1.61 0 1 0 0-3.23 1.61 1.61 0 0 0 0 3.23ZM160.6 24a1.61 1.61 0 1 0 .04-3.23 1.61 1.61 0 0 0 0 3.23Zm0 6.44a1.61 1.61 0 1 0 0-3.22 1.61 1.61 0 0 0 0 3.22Zm-.02 3.22a1.61 1.61 0 1 0 0-3.22 1.61 1.61 0 0 0 0 3.22Z" fill="#3E4957"/><path d="M160.53 36.84a1.61 1.61 0 1 0 0-3.22 1.61 1.61 0 0 0 0 3.22Zm-.06 9.67a1.61 1.61 0 1 0 0-3.22 1.61 1.61 0 0 0 0 3.22Zm-.01 3.23a1.61 1.61 0 1 0 0-3.22 1.61 1.61 0 0 0 0 3.22Zm-.08 12.89a1.61 1.61 0 1 0 0-3.23 1.61 1.61 0 0 0 0 3.23Zm-.04 6.44a1.61 1.61 0 1 0 0-3.22 1.61 1.61 0 0 0 0 3.22Zm-.02 3.23a1.61 1.61 0 1 0 0-3.22 1.61 1.61 0 0 0 0 3.22Z" fill="#3E4957"/><path d="M160.3 75.52a1.61 1.61 0 1 0 0-3.22 1.61 1.61 0 0 0 0 3.22Zm-.04 6.45a1.61 1.61 0 1 0 0-3.23 1.61 1.61 0 0 0 0 3.23Zm-.05 9.67a1.61 1.61 0 1 0 .1-3.23 1.61 1.61 0 0 0 0 3.23Z" fill="#3E4957"/><path d="M160.19 94.85a1.61 1.61 0 1 0 0-3.22 1.61 1.61 0 0 0 0 3.22Zm-.05 6.46a1.61 1.61 0 1 0 0-3.2 1.61 1.61 0 0 0 0 3.3Zm-.05 9.7a1.61 1.61 0 1 0 0-3.2 1.61 1.61 0 0 0 0 3.26Zm3.75-87a1.61 1.61 0 1 0 0-3.2 1.61 1.61 0 0 0 0 3.26Zm-.06 9.7a1.61 1.61 0 1 0 0-3.2 1.61 1.61 0 0 0 0 3.2Zm-.02 3.26a1.61 1.61 0 1 0 0-3.23 1.61 1.61 0 0 0 0 3.22Zm-.02 3.22a1.61 1.61 0 1 0 0-3.22 1.61 1.61 0 0 0 0 3.22Z" fill="#3E4957"/><path d="M163.72 43.31a1.61 1.61 0 1 0 0-3.22 1.61 1.61 0 0 0 0 3.22Zm-.04 6.44a1.61 1.61 0 1 0 0-3.22 1.61 1.61 0 0 0 0 3.22Zm-.01 3.23a1.61 1.61 0 1 0 0-3.22 1.61 1.61 0 0 0 0 3.22Zm-.03 3.22a1.61 1.61 0 1 0 0-3.22 1.61 1.61 0 0 0 0 3.22Zm-.02 3.23a1.61 1.61 0 1 0 0-3.22 1.61 1.61 0 0 0 0 3.22Zm-.02 3.22a1.61 1.61 0 1 0 0-3.22 1.61 1.61 0 0 0 0 3.22Zm-.03 6.44a1.61 1.61 0 1 0 0-3.22 1.61 1.61 0 0 0 0 3.22Zm-.06 9.67a1.61 1.61 0 1 0 0-3.22 1.61 1.61 0 0 0 0 3.22Zm0 3.22a1.61 1.61 0 1 0 0-3.22 1.61 1.61 0 0 0 0 3.22Zm-.06 6.45a1.61 1.61 0 1 0 0-3.22 1.61 1.61 0 0 0 0 3.22Zm-.02 3.23a1.61 1.61 0 1 0 0-3.23 1.61 1.61 0 0 0 0 3.23Z" fill="#3E4957"/><path d="M163.4 94.87a1.61 1.61 0 1 0 .01-3.22 1.61 1.61 0 0 0 0 3.22Zm0 3.23a1.61 1.61 0 1 0 0-3.22 1.61 1.61 0 0 0 0 3.22Z" fill="#3E4957"/><path d="M163.38 101.32a1.61 1.61 0 1 0 0-3.22 1.61 1.61 0 0 0 0 3.22Zm-.02 3.23a1.61 1.61 0 1 0 0-3.23 1.61 1.61 0 0 0 0 3.23Z" fill="#3E4957"/><path d="M163.34 107.76a1.61 1.61 0 1 0 0-3.22 1.61 1.61 0 0 0 0 3.22Zm-.02 3.23a1.61 1.61 0 1 0 0-3.3 1.61 1.61 0 0 0 0 3.21Zm-.02 3.2a1.61 1.61 0 1 0 0-3.3 1.61 1.61 0 0 0 0 3.23Zm3.6-64.5a1.61 1.61 0 1 0 0-3.24 1.61 1.61 0 0 0 0 3.23Zm-.03 6.43a1.61 1.61 0 1 0 0-3.23 1.61 1.61 0 0 0 0 3.23Zm-.1 16.12a1.61 1.61 0 1 0 0-3.22 1.61 1.61 0 0 0 0 3.22Zm-.03 6.44a1.61 1.61 0 1 0 0-3.22 1.61 1.61 0 0 0 0 3.22Zm-.04 3.3a1.61 1.61 0 1 0 0-3.23 1.61 1.61 0 0 0 0 3.23Zm-.03 6.44a1.61 1.61 0 1 0 0-3.22 1.61 1.61 0 0 0 0 3.22Zm-.08 12.9a1.61 1.61 0 1 0 0-3.23 1.61 1.61 0 0 0 0 3.23Zm-.02 3.22a1.61 1.61 0 1 0 0-3.22 1.61 1.61 0 0 0 0 3.22Z" fill="#3E4957"/><path d="M166.56 107.8a1.61 1.61 0 1 0 0-3.23 1.61 1.61 0 0 0 0 3.22Zm3.58-58a1.61 1.61 0 1 0 0-3.23 1.61 1.61 0 0 0 0 3.22Zm-.08 12.89a1.61 1.61 0 1 0 0-3.23 1.61 1.61 0 0 0 0 3.23Zm-.06 9.67a1.61 1.61 0 1 0 0-3.22 1.61 1.61 0 0 0 0 3.22Z" fill="#3E4957"/><path d="M169.98 75.58a1.61 1.61 0 1 0 0-3.23 1.61 1.61 0 0 0 0 3.23Zm-.02 3.22a1.61 1.61 0 1 0 0-3.22 1.61 1.61 0 0 0 0 3.22Zm-.03 6.45a1.61 1.61 0 1 0 0-3.22 1.61 1.61 0 0 0 0 3.22Zm-.03 3.22a1.61 1.61 0 1 0 0-3.22 1.61 1.61 0 0 0 0 3.22Zm-.04 6.45a1.61 1.61 0 1 0 0-3.23 1.61 1.61 0 0 0 0 3.23Zm-.03 6.45a1.61 1.61 0 1 0 0-3.23 1.61 1.61 0 0 0 0 3.23Zm3.5-48.33a1.61 1.61 0 1 0 0-3.23 1.61 1.61 0 0 0 0 3.23Zm-.06 12.9a1.61 1.61 0 1 0 0-3.23 1.61 1.61 0 0 0 0 3.22Zm-.05 6.44a1.61 1.61 0 1 0 0-3.23 1.61 1.61 0 0 0 0 3.23Zm-.03 6.44a1.61 1.61 0 1 0 0-3.22 1.61 1.61 0 0 0 0 3.22Zm-.03 3.22a1.61 1.61 0 1 0 0-3.22 1.61 1.61 0 0 0 0 3.22Z" fill="#3E4957"/><path d="M173.15 85.26a1.61 1.61 0 1 0 0-3.22 1.61 1.61 0 0 0 0 3.22Zm-.01 3.23a1.61 1.61 0 1 0 0-3.3 1.61 1.61 0 0 0 0 3.2Zm-.09 12.8a1.61 1.61 0 1 0 0-3.23 1.61 1.61 0 0 0 0 3.22Zm-.02 3.22a1.61 1.61 0 1 0 0-3.22 1.61 1.61 0 0 0 0 3.22Zm-.04 6.45a1.61 1.61 0 1 0 0-3.23 1.61 1.61 0 0 0 0 3.22Zm-.01 3.22a1.61 1.61 0 1 0 0-3.23 1.61 1.61 0 0 0 0 3.24Zm3.6-61.23a1.61 1.61 0 1 0 0-3.22 1.61 1.61 0 0 0 0 3.22Zm-.06 6.45a1.61 1.61 0 1 0 0-3.22 1.61 1.61 0 0 0 0 3.22Zm-.01 3.23a1.61 1.61 0 1 0 0-3.2 1.61 1.61 0 0 0 0 3.21Z" fill="#3E4957"/><path d="M176.5 65.95a1.61 1.61 0 1 0 0-3.22 1.61 1.61 0 0 0 0 3.22Zm-.05 6.45a1.61 1.61 0 1 0 0-3.23 1.61 1.61 0 0 0 0 3.23Zm-.04 6.44a1.61 1.61 0 1 0 0-3.22 1.61 1.61 0 0 0 0 3.22Zm-.04 6.44a1.61 1.61 0 1 0 0-3.22 1.61 1.61 0 0 0 0 3.22Zm-.01 3.23a1.61 1.61 0 1 0 0-3.22 1.61 1.61 0 0 0 0 3.22Zm-.02 3.22a1.61 1.61 0 1 0 0-3.22 1.61 1.61 0 0 0 0 3.22Zm-.03 3.23a1.61 1.61 0 1 0 0-3.23 1.61 1.61 0 0 0 0 3.23Zm-.01 3.22a1.61 1.61 0 1 0 0-3.22 1.61 1.61 0 0 0 0 3.22Z" fill="#3E4957"/><path d="M176.28 101.4a1.61 1.61 0 1 0 0-3.22 1.61 1.61 0 0 0 0 3.22Zm3.5-45.1a1.61 1.61 0 1 0 0-3.23 1.61 1.61 0 0 0 0 3.23Zm-.02 3.22a1.61 1.61 0 1 0 0-3.22 1.61 1.61 0 0 0 0 3.22Zm-.03 3.22a1.61 1.61 0 1 0 0-3.22 1.61 1.61 0 0 0 0 3.22Zm-.04 6.45a1.61 1.61 0 1 0 0-3.22 1.61 1.61 0 0 0 0 3.22Zm-.05 9.67a1.61 1.61 0 1 0 0-3.22 1.61 1.61 0 0 0 0 3.22Zm-.02 3.22a1.61 1.61 0 1 0 0-3.22 1.61 1.61 0 0 0 0 3.22Zm-.02 3.23a1.61 1.61 0 1 0 0-3.23 1.61 1.61 0 0 0 0 3.23Z" fill="#3E4957"/><path d="M179.58 88.53a1.61 1.61 0 1 0 0-3.23 1.61 1.61 0 0 0 0 3.23Zm-.06 9.67a1.61 1.61 0 1 0 0-3.23 1.61 1.61 0 0 0 0 3.23Zm-.06 9.67a1.61 1.61 0 1 0 0-3.23 1.61 1.61 0 0 0 0 3.23Zm-.02 3.22a1.61 1.61 0 1 0 0-3.22 1.61 1.61 0 0 0 0 3.22Zm3.58-58a1.61 1.61 0 1 0 0-3.22 1.61 1.61 0 0 0 0 3.23Zm-.04 6.45a1.61 1.61 0 1 0 0-3.22 1.61 1.61 0 0 0 0 3.22Z" fill="#3E4957"/><path d="M182.96 62.76a1.61 1.61 0 1 0 0-3.22 1.61 1.61 0 0 0 0 3.22Zm-.06 9.68a1.61 1.61 0 1 0 0-3.23 1.61 1.61 0 0 0 0 3.23Z" fill="#3E4957"/><path d="M182.89 75.66a1.61 1.61 0 1 0 0-3.23 1.61 1.61 0 0 0 0 3.23Zm-.03 3.22a1.61 1.61 0 1 0 0-3.22 1.61 1.61 0 0 0 0 3.22Zm-.03 6.44a1.61 1.61 0 1 0 0-3.22 1.61 1.61 0 0 0 0 3.22Zm-.02 3.23a1.61 1.61 0 1 0 0-3.22 1.61 1.61 0 0 0 0 3.22Zm-.02 3.22a1.61 1.61 0 1 0 0-3.22 1.61 1.61 0 0 0 0 3.22Zm-.02 3.23a1.61 1.61 0 1 0 0-3.23 1.61 1.61 0 0 0 0 3.22Zm-.03 3.22a1.61 1.61 0 1 0 0-3.23 1.61 1.61 0 0 0 0 3.23Zm-.01 3.22a1.61 1.61 0 1 0 0-3.22 1.61 1.61 0 0 0 0 3.22Z" fill="#3E4957"/><path d="M182.71 104.66a1.61 1.61 0 1 0 0-3.22 1.61 1.61 0 0 0 0 3.22Zm-.04 6.45a1.61 1.61 0 1 0 0-3.23 1.61 1.61 0 0 0 0 3.23Zm3.6-61.22a1.61 1.61 0 1 0 0-3.23 1.61 1.61 0 0 0 0 3.23Zm-.02 3.23a1.61 1.61 0 1 0 0-3.23 1.61 1.61 0 0 0 0 3.23Zm-.02 3.22a1.61 1.61 0 1 0 0-3.22 1.61 1.61 0 0 0 0 3.22Zm-.04 6.45a1.61 1.61 0 1 0 0-3.3 1.61 1.61 0 0 0 0 3.2Zm-.08 12.8a1.61 1.61 0 1 0 .1-3.23 1.61 1.61 0 0 0 0 3.22Zm0 6.43a1.61 1.61 0 1 0 0-3.23 1.61 1.61 0 0 0 0 3.23Zm0 3.23a1.61 1.61 0 1 0 0-3.23 1.61 1.61 0 0 0 0 3.23Zm-.1 9.69a1.61 1.61 0 1 0 0-3.22 1.61 1.61 0 0 0 0 3.23Zm0 6.46a1.61 1.61 0 1 0 0-3.22 1.61 1.61 0 0 0 0 3.22Zm-.02 6.45a1.61 1.61 0 1 0 0-3.23 1.61 1.61 0 0 0 0 3.22Zm-.04 6.44a1.61 1.61 0 1 0 0-3.22 1.61 1.61 0 0 0 0 3.22Zm3.53-58a1.61 1.61 0 1 0 0-3.21 1.61 1.61 0 0 0 0 3.22Z" fill="#3E4957"/><path d="M189.4 62.8a1.61 1.61 0 1 0 0-3.22 1.61 1.61 0 0 0 0 3.22Zm-.03 6.44a1.61 1.61 0 1 0 0-3.22 1.61 1.61 0 0 0 0 3.22Zm-.02 3.23a1.61 1.61 0 1 0 0-3.22 1.61 1.61 0 0 0 0 3.22Zm-.03 6.45a1.61 1.61 0 1 0 0-3.22 1.61 1.61 0 0 0 0 3.22Zm-.08 12.88a1.61 1.61 0 1 0 0-3.22 1.61 1.61 0 0 0 0 3.22Zm-.02 3.23a1.61 1.61 0 1 0 0-3.22 1.61 1.61 0 0 0 0 3.22Zm-.04 6.45a1.61 1.61 0 1 0 0-3.22 1.61 1.61 0 0 0 0 3.22Zm-.02 3.23a1.61 1.61 0 1 0 0-3.23 1.61 1.61 0 0 0 0 3.23Z" fill="#3E4957"/><path d="M189.14 107.92a1.61 1.61 0 1 0 0-3.22 1.61 1.61 0 0 0 0 3.22Zm-91.47-79.5-.04 6.44a8.06 8.06 0 0 0 8.02 8.1l6.43.04a8.07 8.07 0 0 0 8.12-8l.04-6.44a8.05 8.05 0 0 0-8.02-8.1l-6.45-.04a8.07 8.07 0 0 0-8.12 8h.02Zm7.67-5.82 7.28.04a5.46 5.46 0 0 1 5.43 5.5l-.04 7.27a5.44 5.44 0 0 1-5.4 5.43l-7.28-.05a5.47 5.47 0 0 1-5.43-5.5l.04-7.3a5.45 5.45 0 0 1 5.5-5.48Z" fill="#3E4957"/><rect fill="#9B27AF" width="10.93" height="10.92" x="103.35" y="26.23" rx="1.76"/><rect fill="#9B27AF" width="10.93" height="10.92" x="103.35" y="98.88" rx="1.76"/><rect fill="#9B27AF" width="10.93" height="10.92" x="174.25" y="26.23" rx="1.76"/><path d="m97.67 101.05-.04 6.45a8.05 8.05 0 0 0 8.02 8.1l6.43.04a8.07 8.07 0 0 0 8.12-8l.04-6.45a8.07 8.07 0 0 0-8.02-8.11l-6.45-.04a8.07 8.07 0 0 0-8.12 8h.02Zm7.67-5.82 7.28.04a5.46 5.46 0 0 1 5.43 5.49l-.04 7.27a5.46 5.46 0 0 1-5.39 5.43l-7.29-.05a5.47 5.47 0 0 1-5.42-5.48l.04-7.28a5.46 5.46 0 0 1 5.5-5.42Zm63.16-66.81-.04 6.44a8.05 8.05 0 0 0 8.02 8.1l6.44.04a8.07 8.07 0 0 0 8.1-8l.05-6.44a8.07 8.07 0 0 0-8.02-8.1l-6.45-.04a8.07 8.07 0 0 0-8.1 8Zm7.67-5.82 7.29.04a5.47 5.47 0 0 1 5.42 5.5l-.04 7.27a5.46 5.46 0 0 1-5.5 5.43l-7.28-.05a5.47 5.47 0 0 1-5.43-5.6l.05-7.26a5.46 5.46 0 0 1 5.5-5.43Z" fill="#3E4957"/><path d="M116.42 148.86c-.78 0-1.53-.1-2.27-.31-.72-.22-1.3-.5-1.74-.83l.77-1.72a5.65 5.65 0 0 0 3.25 1.03c.65 0 1.13-.1 1.44-.28.31-.2.46-.46.46-.78a.7.7 0 0 0-.28-.57 1.94 1.94 0 0 0-.7-.38c-.28-.1-.67-.2-1.16-.31a16 16 0 0 1-1.84-.54c-.48-.17-.9-.46-1.24-.85-.34-.4-.5-.92-.5-1.58 0-.57.15-1.09.46-1.55.3-.47.77-.84 1.4-1.1a5.58 5.58 0 0 1 2.29-.42c.63 0 1.24.08 1.84.23.6.15 1.13.36 1.58.64l-.7 1.74a5.5 5.5 0 0 0-2.74-.78c-.63 0-1.1.1-1.42.31-.3.2-.45.48-.45.82 0 .33.17.59.52.76.36.16.9.32 1.62.48.75.17 1.37.35 1.85.53a3 3 0 0 1 1.22.84c.35.39.52.9.52 1.56 0 .57-.16 1.08-.48 1.55-.3.46-.78.83-1.4 1.1-.63.27-1.4.4-2.3.4Zm10.46 0c-1 0-1.92-.22-2.73-.65a5.01 5.01 0 0 1-1.92-1.81 5.07 5.07 0 0 1-.7-2.64 4.88 4.88 0 0 1 2.6-4.43 5.69 5.69 0 0 1 2.76-.66c.86 0 1.63.15 2.3.45.7.3 1.29.73 1.76 1.3l-1.47 1.35a3.15 3.15 0 0 0-2.47-1.16 3.17 3.17 0 0 0-2.7 1.52 3.39 3.39 0 0 0-.4 1.63c0 .62.17 1.16.4 1.64s.68.85 1.16 1.12c.48.26 1.02.4 1.64.4.98 0 1.8-.4 2.47-1.17l1.47 1.35c-.47.57-1.05 1-1.75 1.3-.7.3-1.47.46-2.32.46Zm11.9-2.28h-4.57l-.87 2.1H131l4.4-9.84h2.25l4.4 9.85h-2.39l-.87-2.11Zm-.7-1.73-1.57-3.77-1.57 3.77h3.13Zm14.04-6v9.84h-1.87l-4.92-5.98v5.98h-2.25v-9.85h1.89l4.9 5.98v-5.98h2.25Zm15.3 9.84-.02-5.9-2.9 4.86h-1.03l-2.89-4.74v5.78h-2.14v-9.85h1.9l3.68 6.12 3.63-6.12h1.87l.03 9.85h-2.14Zm12.1-1.83v1.83h-7.63v-9.9h7.4v1.8h-5.2v2.12h4.54v1.78h-4.56v2.28h5.37Z" fill="#FBFBFB"/><path d="M144.54 58.4c-2.54 0-2.86.01-3.86.05-1 .05-1.68.2-2.27.44-.63.24-1.2.6-1.66 1.08a4.61 4.61 0 0 0-1.1 1.66c-.22.6-.38 1.28-.42 2.27-.05 1-.06 1.32-.06 3.86a61 61 0 0 0 .06 3.86c.05 1 .2 1.68.43 2.28a4.6 4.6 0 0 0 1.09 1.66c.52.52 1.04.84 1.65 1.08.6.23 1.28.39 2.28.43 1 .05 1.32.06 3.86.06 2.55 0 2.87-.01 3.87-.06 1-.05 1.68-.2 2.28-.43.62-.24 1.2-.6 1.65-1.08a4.6 4.6 0 0 0 1.1-1.66c.22-.6.37-1.28.42-2.28a61 61 0 0 0 .06-3.86c0-2.54 0-2.86-.06-3.86-.05-1-.2-1.68-.43-2.27a4.6 4.6 0 0 0-1.09-1.66 4.58 4.58 0 0 0-1.66-1.08 6.9 6.9 0 0 0-2.27-.44c-1-.04-1.32-.05-3.87-.05Zm-.83 1.69h.9c2.5 0 2.8 0 3.8.05.94.04 1.4.2 1.76.32a3 3 0 0 1 1.78 1.78c.12.33.27.83.3 1.74.06.99.07 1.28.07 3.78s0 2.8-.06 3.78a5.08 5.08 0 0 1-.32 1.74c-.17.4-.42.78-.72 1.08a2.9 2.9 0 0 1-1.08.7c-.31.13-.8.28-1.72.32-1 .05-1.28.06-3.78.06s-2.8-.01-3.8-.06a5.4 5.4 0 0 1-1.73-.32 2.9 2.9 0 0 1-1.08-.7 2.9 2.9 0 0 1-.7-1.08 5.19 5.19 0 0 1-.34-1.74c-.04-.98-.05-1.28-.05-3.78s0-2.8.05-3.78c.05-.92.2-1.41.33-1.74.16-.44.36-.75.69-1.08a2.9 2.9 0 0 1 1.08-.7c.33-.13.82-.28 1.74-.32.85-.04 1.2-.05 2.94-.06Zm5.9 1.55a1.13 1.13 0 0 0-1.1 1.12 1.11 1.11 0 0 0 .7 1.04 1.13 1.13 0 0 0 1.56-1.04 1.12 1.12 0 0 0-1.12-1.12Zm-5 1.3a4.81 4.81 0 1 0-.12 9.64 4.81 4.81 0 0 0 .15-9.63Zm0 1.7a3.12 3.12 0 1 1 0 6.25 3.12 3.12 0 0 1 0-6.25Z" fill="#3E4957"/><rect fill="#3E4957" width="134.99" height="38.7" x="76.81" y="173.97" rx="5"/><path d="M146.4 179.5v11.97l4.37-4.37 2.12 2.12-7 6.92a1.5 1.5 0 0 1-2.15 0l-6.93-6.92 2.12-2.12 4.37 4.36V179.5h3Zm-10.57 14.08v6.2a.85.85 0 0 0 .85.84h16.43a.84.84 0 0 0 .85-.85v-6.19h3v6.2a3.85 3.85 0 0 1-3.85 3.84h-16.43a3.85 3.85 0 0 1-3.85-3.85v-6.19h3Z" fill="#FBFBFB" fill-rule="evenodd" clip-rule="evenodd"/></svg>