<svg width="39" height="39" viewBox="0 0 39 39" fill="none" xmlns="http://www.w3.org/2000/svg">
<path d="M13.5625 5.05078C8.97163 5.05078 5.25 8.77241 5.25 13.3633V25.2383C5.25 29.8291 8.97163 33.5508 13.5625 33.5508H25.4375C30.0284 33.5508 33.75 29.8291 33.75 25.2383V19.3008C33.75 18.6449 34.2817 18.1133 34.9375 18.1133C35.5933 18.1133 36.125 18.6449 36.125 19.3008V25.2383C36.125 31.1408 31.34 35.9258 25.4375 35.9258H13.5625C7.65996 35.9258 2.875 31.1408 2.875 25.2383V13.3633C2.875 7.46074 7.65996 2.67578 13.5625 2.67578H19.5C20.1558 2.67578 20.6875 3.20744 20.6875 3.86328C20.6875 4.51912 20.1558 5.05078 19.5 5.05078H13.5625Z" fill="#9B27AF"/>
<path d="M38.5 7.42578C38.5 11.3608 35.31 14.5508 31.375 14.5508C27.44 14.5508 24.25 11.3608 24.25 7.42578C24.25 3.49075 27.44 0.300781 31.375 0.300781C35.31 0.300781 38.5 3.49075 38.5 7.42578Z" fill="#9B27AF"/>
</svg>
