<svg width="83" height="84" viewBox="0 0 83 84" fill="none" xmlns="http://www.w3.org/2000/svg">
<path fill-rule="evenodd" clip-rule="evenodd" d="M79.421 3.4375V57.2935H72.935V11.1027L33.2985 17.7164V64.9894H26.8125V12.2156L79.421 3.4375Z" fill="#9C27B0"/>
<path fill-rule="evenodd" clip-rule="evenodd" d="M18.5236 56.6926C13.9465 56.6926 10.236 60.4074 10.236 64.9898C10.236 69.5722 13.9465 73.2869 18.5236 73.2869C23.1007 73.2869 26.8112 69.5722 26.8112 64.9898C26.8112 60.4074 23.1007 56.6926 18.5236 56.6926ZM3.75 64.9898C3.75 56.8212 10.3644 50.1992 18.5236 50.1992C26.6828 50.1992 33.2972 56.8212 33.2972 64.9898C33.2972 73.1584 26.6828 79.7804 18.5236 79.7804C10.3644 79.7804 3.75 73.1584 3.75 64.9898Z" fill="#9C27B0"/>
<path fill-rule="evenodd" clip-rule="evenodd" d="M64.6447 48.9954C60.0676 48.9954 56.3571 52.7101 56.3571 57.2925C56.3571 61.8749 60.0676 65.5897 64.6447 65.5897C69.2218 65.5897 72.9323 61.8749 72.9323 57.2925C72.9323 52.7101 69.2218 48.9954 64.6447 48.9954ZM49.8711 57.2925C49.8711 49.1239 56.4855 42.502 64.6447 42.502C72.8039 42.502 79.4183 49.1239 79.4183 57.2925C79.4183 65.4611 72.8039 72.0831 64.6447 72.0831C56.4855 72.0831 49.8711 65.4611 49.8711 57.2925Z" fill="#9C27B0"/>
</svg>
