<svg width="39" height="38" viewBox="0 0 39 38" fill="none" xmlns="http://www.w3.org/2000/svg">
<path d="M9.17795 3.15516C8.58315 2.39042 7.45269 2.32004 6.76763 3.0051L4.31207 5.46067C3.16381 6.60893 2.74169 8.23568 3.24337 9.66261C5.25802 15.3929 8.55636 20.7734 13.1415 25.3585C17.7266 29.9436 23.1071 33.242 28.8374 35.2566C30.2643 35.7583 31.8911 35.3362 33.0393 34.1879L35.4949 31.7324C36.18 31.0473 36.1096 29.9169 35.3448 29.3221L29.8676 25.062C29.477 24.7582 28.9683 24.6508 28.4881 24.7708L23.2891 26.0706C21.8769 26.4236 20.3831 26.0098 19.3538 24.9806L13.5194 19.1462C12.4902 18.1169 12.0764 16.6231 12.4294 15.2109L13.7292 10.0119C13.8492 9.53172 13.7419 9.02304 13.438 8.63237L9.17795 3.15516ZM4.97634 1.21381C6.73886 -0.548717 9.6473 -0.367643 11.1776 1.59988L15.4376 7.07709C16.2194 8.08222 16.4957 9.39095 16.1868 10.6263L14.8871 15.8253C14.7499 16.3742 14.9107 16.9548 15.3107 17.3549L21.1451 23.1893C21.5452 23.5893 22.1258 23.7502 22.6747 23.6129L27.8737 22.3132C29.109 22.0043 30.4178 22.2806 31.4229 23.0624L36.9001 27.3224C38.8676 28.8527 39.0487 31.7611 37.2862 33.5237L34.8306 35.9792C33.0738 37.7361 30.4461 38.5075 27.9972 37.6465C21.9167 35.5088 16.2092 32.0088 11.3502 27.1498C6.49116 22.2908 2.99125 16.5833 0.85349 10.5028C-0.00749564 8.05392 0.763934 5.42621 2.52077 3.66937L4.97634 1.21381Z" fill="#9B27AF"/>
</svg>
