<svg width="39" height="38" viewBox="0 0 39 38" fill="none" xmlns="http://www.w3.org/2000/svg">
<path d="M33.75 33.25V10.6875L23.0625 0H10C7.37665 0 5.25 2.12665 5.25 4.75V33.25C5.25 35.8734 7.37665 38 10 38H29C31.6234 38 33.75 35.8734 33.75 33.25ZM23.0625 7.125C23.0625 9.09251 24.6575 10.6875 26.625 10.6875H31.375V21.375H7.625V4.75C7.625 3.43832 8.68832 2.375 10 2.375H23.0625V7.125ZM7.625 28.5V23.75H12.375V28.5H7.625ZM7.625 30.875H12.375V35.625H10C8.68832 35.625 7.625 34.5617 7.625 33.25V30.875ZM14.75 35.625V30.875H21.875V35.625H14.75ZM24.25 35.625V30.875H31.375V33.25C31.375 34.5617 30.3117 35.625 29 35.625H24.25ZM31.375 28.5H24.25V23.75H31.375V28.5ZM14.75 28.5V23.75H21.875V28.5H14.75Z" fill="#9B27AF"/>
</svg>
