<svg width="83" height="84" viewBox="0 0 83 84" fill="none" xmlns="http://www.w3.org/2000/svg">
<path fill-rule="evenodd" clip-rule="evenodd" d="M11.2784 15.2376C9.64633 15.2376 8.3141 16.5713 8.3141 18.2053V66.0931C8.3141 67.727 9.64633 69.0608 11.2784 69.0608H71.7541C73.3862 69.0608 74.7185 67.727 74.7185 66.0931V18.2053C74.7185 16.5713 73.3862 15.2376 71.7541 15.2376H11.2784ZM1.82812 18.2053C1.82812 12.9851 6.06422 8.74414 11.2784 8.74414H71.7541C76.9683 8.74414 81.2044 12.9851 81.2044 18.2053V66.0931C81.2044 71.3133 76.9683 75.5542 71.7541 75.5542H11.2784C6.06423 75.5542 1.82812 71.3133 1.82812 66.0931V18.2053Z" fill="#9C27B0"/>
<path fill-rule="evenodd" clip-rule="evenodd" d="M26.5836 31.4355L63.4542 71.2897L58.6957 75.7021L26.8293 41.2571L7.83255 63.9737L2.85938 59.8053L26.5836 31.4355Z" fill="#9C27B0"/>
<path fill-rule="evenodd" clip-rule="evenodd" d="M56.4686 37.4238L80.2555 61.238L75.6692 65.8295L56.8264 46.9651L47.8782 57.3803L42.9609 53.1459L56.4686 37.4238Z" fill="#9C27B0"/>
<path d="M57.7995 31.0782C60.7846 31.0782 63.2045 28.6556 63.2045 25.667C63.2045 22.6785 60.7846 20.2559 57.7995 20.2559C54.8144 20.2559 52.3945 22.6785 52.3945 25.667C52.3945 28.6556 54.8144 31.0782 57.7995 31.0782Z" fill="#9C27B0"/>
</svg>
