<svg width="83" height="83" viewBox="0 0 83 83" fill="none" xmlns="http://www.w3.org/2000/svg">
<path fill-rule="evenodd" clip-rule="evenodd" d="M23.8321 13.8302C18.2044 13.8302 13.6046 18.4307 13.6046 24.0592V58.3798C13.6046 64.0083 18.2044 68.6088 23.8321 68.6088H58.1679C63.7956 68.6088 68.3954 64.0083 68.3954 58.3798V24.0694C68.3954 18.4409 63.7956 13.8404 58.1679 13.8404H23.8321V13.8302ZM7 24.0694C7 14.7666 14.5409 7.22461 23.8423 7.22461H58.1679C67.4591 7.22461 75 14.7564 75 24.0592V58.39C75 67.6826 67.4693 75.2246 58.1679 75.2246H23.8423C14.5409 75.2246 7 67.6826 7 58.3798V24.0694Z" fill="#9C27B0"/>
<path d="M58.2186 27.3164C61.3123 27.9983 63.9989 25.3113 63.3171 22.2171C62.9711 20.6599 61.7193 19.408 60.1623 19.0619C57.0686 18.38 54.382 21.067 55.0638 24.1611C55.4098 25.7184 56.6616 26.9703 58.2186 27.3164Z" fill="#9C27B0"/>
<path d="M40.9992 58.4196C31.5146 58.4196 23.8008 50.7046 23.8008 41.2186C23.8008 31.7326 31.5146 24.0176 40.9992 24.0176C50.4838 24.0176 58.1977 31.7326 58.1977 41.2186C58.1977 50.7046 50.4838 58.4196 40.9992 58.4196ZM40.9992 30.6435C35.168 30.6435 30.4156 35.3865 30.4156 41.2288C30.4156 47.071 35.1579 51.814 40.9992 51.814C46.8406 51.814 51.5829 47.071 51.5829 41.2288C51.5829 35.3865 46.8406 30.6435 40.9992 30.6435Z" fill="#9C27B0"/>
</svg>
