<svg width="83" height="84" viewBox="0 0 83 84" fill="none" xmlns="http://www.w3.org/2000/svg">
<path d="M43.33 5.3457C23.1745 5.3457 6.81641 21.7226 6.81641 41.9013C6.81641 62.0799 23.1745 78.4568 43.33 78.4568H61.5869V71.1457H43.33C27.4831 71.1457 14.1191 57.7664 14.1191 41.9013C14.1191 26.0361 27.4831 12.6568 43.33 12.6568C59.177 12.6568 72.5409 26.0361 72.5409 41.9013V47.1287C72.5409 50.0166 69.9485 52.8679 67.0639 52.8679C64.1793 52.8679 61.5869 50.0166 61.5869 47.1287V41.9013C61.5869 31.8119 53.4078 23.6235 43.33 23.6235C33.2523 23.6235 25.0732 31.8119 25.0732 41.9013C25.0732 51.9906 33.2523 60.179 43.33 60.179C48.3689 60.179 52.9696 58.1319 56.2559 54.8054C58.6293 58.0588 62.7188 60.179 67.0639 60.179C74.2571 60.179 79.8437 54.3301 79.8437 47.1287V41.9013C79.8437 21.7226 63.4856 5.3457 43.33 5.3457ZM43.33 52.8679C37.2688 52.8679 32.376 47.9695 32.376 41.9013C32.376 35.833 37.2688 30.9346 43.33 30.9346C49.3913 30.9346 54.2841 35.833 54.2841 41.9013C54.2841 47.9695 49.3913 52.8679 43.33 52.8679Z" fill="#9C27B0"/>
</svg>
