<svg width="39" height="38" viewBox="0 0 39 38" fill="none" xmlns="http://www.w3.org/2000/svg">
<path fill-rule="evenodd" clip-rule="evenodd" d="M7.8625 26.6C8.08677 26.301 8.43873 26.125 8.8125 26.125H14.75C15.4058 26.125 15.9375 26.6567 15.9375 27.3125C15.9375 27.9683 15.4058 28.5 14.75 28.5H9.40625L4.06251 35.625H34.9375L29.5938 28.5H24.25C23.5942 28.5 23.0625 27.9683 23.0625 27.3125C23.0625 26.6567 23.5942 26.125 24.25 26.125H30.1875C30.5613 26.125 30.9132 26.301 31.1375 26.6L38.2625 36.1C38.5324 36.4598 38.5758 36.9413 38.3746 37.3436C38.1735 37.7459 37.7623 38 37.3125 38H1.68751C1.23771 38 0.826527 37.7459 0.625375 37.3436C0.424222 36.9413 0.467632 36.4598 0.737507 36.1L7.8625 26.6Z" fill="#9B27AF"/>
<path fill-rule="evenodd" clip-rule="evenodd" d="M19.5 2.375C15.565 2.375 12.375 5.56497 12.375 9.5C12.375 13.435 15.565 16.625 19.5 16.625C23.435 16.625 26.625 13.435 26.625 9.5C26.625 5.56497 23.435 2.375 19.5 2.375ZM10 9.5C10 4.25329 14.2533 0 19.5 0C24.7467 0 29 4.25329 29 9.5C29 14.3445 25.3737 18.3421 20.6875 18.9265V32.0625C20.6875 32.7183 20.1558 33.25 19.5 33.25C18.8442 33.25 18.3125 32.7183 18.3125 32.0625V18.9265C13.6263 18.3421 10 14.3445 10 9.5Z" fill="#9B27AF"/>
</svg>
