<svg width="39" height="38" viewBox="0 0 39 38" fill="none" xmlns="http://www.w3.org/2000/svg">
<path d="M32.8952 32.0612V11.3789L23.2702 1.58203H11.5063C10.3718 1.58203 9.28369 2.04077 8.48145 2.85734C7.67921 3.6739 7.22852 4.7814 7.22852 5.9362V32.0612C7.22852 33.216 7.67921 34.3235 8.48145 35.1401C9.28369 35.9566 10.3718 36.4154 11.5063 36.4154H28.6174C29.7519 36.4154 30.84 35.9566 31.6422 35.1401C32.4445 34.3235 32.8952 33.216 32.8952 32.0612ZM23.2702 8.11328C23.2702 8.97938 23.6082 9.81 24.2099 10.4224C24.8116 11.0349 25.6276 11.3789 26.4785 11.3789H30.7563V32.0612C30.7563 32.6386 30.5309 33.1923 30.1298 33.6006C29.7287 34.0089 29.1847 34.2383 28.6174 34.2383H11.5063C10.939 34.2383 10.395 34.0089 9.99387 33.6006C9.59275 33.1923 9.3674 32.6386 9.3674 32.0612V5.9362C9.3674 5.3588 9.59275 4.80505 9.99387 4.39677C10.395 3.98849 10.939 3.75911 11.5063 3.75911H23.2702V8.11328Z" fill="#9B27AF"/>
<path d="M12.1796 32.6586C11.7287 32.4919 11.3654 32.1698 11.1664 31.7602C10.7153 30.9302 10.8656 30.1003 11.3514 29.4029C11.8094 28.7462 12.5682 28.1879 13.4264 27.7194C14.5135 27.1493 15.6626 26.6868 16.8547 26.3397C17.7805 24.8008 18.601 23.2098 19.3114 21.5759C18.8866 20.6834 18.5536 19.7559 18.3167 18.8058C18.1178 17.9501 18.0414 17.103 18.2103 16.3757C18.3838 15.6185 18.8441 14.9382 19.7139 14.6152C20.1581 14.4505 20.6392 14.3585 21.1065 14.4505C21.3416 14.4968 21.5625 14.5909 21.7534 14.7259C21.9442 14.861 22.1002 15.0336 22.2099 15.2313C22.4135 15.5821 22.4875 15.9928 22.5037 16.3821C22.5199 16.7843 22.476 17.2292 22.395 17.6956C22.2007 18.7865 21.7704 20.1213 21.1921 21.5331C21.8303 22.7952 22.589 24.0022 23.4591 25.1397C24.4887 25.0645 25.5243 25.1004 26.545 25.2466C27.387 25.3878 28.243 25.6637 28.7658 26.2413C29.0434 26.5493 29.2122 26.9258 29.2284 27.3494C29.2446 27.7601 29.1197 28.1665 28.9092 28.5537C28.7268 28.9125 28.4441 29.2197 28.0903 29.4436C27.7405 29.6545 27.3276 29.7578 26.9105 29.7388C26.1448 29.7088 25.3976 29.3195 24.7522 28.8467C23.9674 28.2467 23.2603 27.5648 22.6448 26.8146C21.0805 26.9788 19.5347 27.2694 18.0252 27.6831C17.334 28.8167 16.5449 29.8969 15.6657 30.9131C14.9902 31.6618 14.2569 32.3164 13.5213 32.5966C13.0986 32.7734 12.6192 32.7956 12.1796 32.6586ZM15.3696 28.5922C14.9856 28.7548 14.6293 28.9259 14.3078 29.1013C13.549 29.5163 13.0563 29.9206 12.8111 30.2714C12.5936 30.5816 12.589 30.8062 12.7186 31.0436C12.7417 31.0907 12.7648 31.1206 12.7787 31.1377C12.8063 31.1309 12.8334 31.1223 12.8597 31.1121C13.1766 30.9923 13.6809 30.6094 14.3286 29.8885C14.697 29.4714 15.0443 29.0389 15.3696 28.5922ZM19.1634 25.7472C19.9358 25.5805 20.7153 25.4427 21.4998 25.3343C21.0786 24.7383 20.6849 24.1259 20.32 23.499C19.9572 24.2575 19.5715 25.0065 19.1634 25.745V25.7472ZM24.8216 26.7098C25.1686 27.0584 25.5064 27.3515 25.8279 27.5868C26.3831 27.9932 26.7694 28.128 26.9799 28.1344C27.0363 28.1412 27.0934 28.1299 27.1418 28.1023C27.2381 28.0321 27.313 27.9399 27.3593 27.8349C27.4415 27.7046 27.4884 27.5578 27.4958 27.4071C27.4944 27.3569 27.473 27.3089 27.4356 27.2724C27.3153 27.1397 26.973 26.9472 26.2373 26.8253C25.7694 26.7529 25.296 26.715 24.8216 26.7119V26.7098ZM20.2182 19.21C20.4129 18.6293 20.5674 18.0377 20.6809 17.4389C20.7526 17.0367 20.7803 16.7052 20.7688 16.4442C20.7694 16.3002 20.7444 16.1571 20.6947 16.0206C20.579 16.0339 20.466 16.0627 20.3593 16.1062C20.1581 16.1811 19.9938 16.3329 19.9059 16.7116C19.8134 17.1223 19.8365 17.7148 20.0123 18.4699C20.0678 18.7074 20.1372 18.9555 20.2205 19.21H20.2182Z" fill="#9B27AF"/>
</svg>
