<svg width="39" height="38" viewBox="0 0 39 38" fill="none" xmlns="http://www.w3.org/2000/svg">
<path d="M19.5 0C20.0067 0 20.4575 0.321428 20.6227 0.800386L21.9846 4.75H33.75C35.0617 4.75 36.125 5.81332 36.125 7.125V23.75C36.125 25.0617 35.0617 26.125 33.75 26.125H29.3553L32.4977 35.2379C32.7115 35.8579 32.3822 36.5338 31.7621 36.7476C31.1421 36.9614 30.4662 36.6321 30.2524 36.0121L26.8431 26.125H20.6875V33.25C20.6875 33.9058 20.1559 34.4375 19.5 34.4375C18.8442 34.4375 18.3125 33.9058 18.3125 33.25V26.125H12.157L8.74766 36.0121C8.53387 36.6321 7.85793 36.9614 7.23792 36.7476C6.61791 36.5338 6.28861 35.8579 6.5024 35.2379L9.64478 26.125H5.25C3.93832 26.125 2.875 25.0617 2.875 23.75V7.125C2.875 5.81332 3.93832 4.75 5.25 4.75H17.0155L18.3774 0.800386C18.5426 0.321428 18.9934 0 19.5 0ZM5.25 7.125V23.75H33.75V7.125H5.25Z" fill="#9B27AF"/>
</svg>
