<svg width="39" height="38" viewBox="0 0 39 38" fill="none" xmlns="http://www.w3.org/2000/svg">
<path d="M38.5 19C38.5 29.4934 29.9934 38 19.5 38C9.00659 38 0.5 29.4934 0.5 19C0.5 8.50659 9.00659 0 19.5 0C29.9934 0 38.5 8.50659 38.5 19ZM20.181 14.0267C18.3329 14.7954 14.6395 16.3863 9.10059 18.7995C8.20116 19.1572 7.73 19.5071 7.68711 19.8492C7.61462 20.4274 8.33873 20.6551 9.32476 20.9652C9.45889 21.0074 9.59786 21.0511 9.74033 21.0974C10.7104 21.4127 12.0154 21.7816 12.6938 21.7963C13.3092 21.8096 13.996 21.5559 14.7543 21.0352C19.9294 17.5418 22.6009 15.7761 22.7686 15.738C22.8869 15.7112 23.0509 15.6774 23.162 15.7762C23.2731 15.8749 23.2621 16.0619 23.2504 16.1121C23.1786 16.4179 20.3363 19.0604 18.8654 20.4279C18.4068 20.8542 18.0815 21.1566 18.0151 21.2257C17.8661 21.3804 17.7143 21.5267 17.5684 21.6674C16.6671 22.5362 15.9913 23.1877 17.6058 24.2516C18.3817 24.7629 19.0026 25.1857 19.6219 25.6075C20.2984 26.0682 20.9731 26.5276 21.846 27.0999C22.0684 27.2456 22.2808 27.3971 22.4877 27.5445C23.2749 28.1058 23.9821 28.61 24.8559 28.5295C25.3636 28.4828 25.888 28.0054 26.1543 26.5816C26.7838 23.2167 28.021 15.926 28.3069 12.9216C28.332 12.6584 28.3005 12.3215 28.2752 12.1737C28.2499 12.0258 28.197 11.8151 28.0048 11.6591C27.7771 11.4744 27.4257 11.4355 27.2685 11.4382C26.5539 11.4508 25.4575 11.8321 20.181 14.0267Z" fill="#9B27AF"/>
</svg>
