<svg width="39" height="38" viewBox="0 0 39 38" fill="none" xmlns="http://www.w3.org/2000/svg">
<path fill-rule="evenodd" clip-rule="evenodd" d="M5.25 29.6875C5.25 29.0317 5.78166 28.5 6.4375 28.5H23.0625C23.7183 28.5 24.25 29.0317 24.25 29.6875C24.25 30.3433 23.7183 30.875 23.0625 30.875H6.4375C5.78166 30.875 5.25 30.3433 5.25 29.6875Z" fill="#9B27AF"/>
<path fill-rule="evenodd" clip-rule="evenodd" d="M5.25 22.5625C5.25 21.9067 5.78166 21.375 6.4375 21.375H32.5625C33.2183 21.375 33.75 21.9067 33.75 22.5625C33.75 23.2183 33.2183 23.75 32.5625 23.75H6.4375C5.78166 23.75 5.25 23.2183 5.25 22.5625Z" fill="#9B27AF"/>
<path fill-rule="evenodd" clip-rule="evenodd" d="M5.25 15.4375C5.25 14.7817 5.78166 14.25 6.4375 14.25H32.5625C33.2183 14.25 33.75 14.7817 33.75 15.4375C33.75 16.0933 33.2183 16.625 32.5625 16.625H6.4375C5.78166 16.625 5.25 16.0933 5.25 15.4375Z" fill="#9B27AF"/>
<path fill-rule="evenodd" clip-rule="evenodd" d="M5.25 8.3125C5.25 7.65666 5.78166 7.125 6.4375 7.125H32.5625C33.2183 7.125 33.75 7.65666 33.75 8.3125C33.75 8.96834 33.2183 9.5 32.5625 9.5H6.4375C5.78166 9.5 5.25 8.96834 5.25 8.3125Z" fill="#9B27AF"/>
</svg>
