<svg width="39" height="38" viewBox="0 0 39 38" fill="none" xmlns="http://www.w3.org/2000/svg">
<path d="M21.875 2.42069e-05L26.5789 0C26.9185 1.69815 27.8614 3.84051 29.5107 5.96587C31.1267 8.0484 33.2682 9.50002 36.125 9.50002V14.25C31.9607 14.25 28.8315 12.3178 26.625 9.90706V26.125C26.625 32.6834 21.3084 38 14.75 38C8.19162 38 2.875 32.6834 2.875 26.125C2.875 19.5666 8.19162 14.25 14.75 14.25V19C10.815 19 7.625 22.19 7.625 26.125C7.625 30.0601 10.815 33.25 14.75 33.25C18.685 33.25 21.875 30.0601 21.875 26.125V2.42069e-05Z" fill="#9B27AF"/>
</svg>
