<svg width="39" height="38" viewBox="0 0 39 38" fill="none" xmlns="http://www.w3.org/2000/svg">
<path d="M15.5907 13.0625H10C8.11033 13.0625 6.29806 13.8132 4.96186 15.1494C3.62567 16.4856 2.875 18.2978 2.875 20.1875C2.875 22.0772 3.62567 23.8894 4.96186 25.2256C6.29806 26.5618 8.11033 27.3125 10 27.3125H17.125C18.2652 27.3131 19.3888 27.0401 20.4016 26.5163C21.4144 25.9926 22.2867 25.2334 22.9452 24.3026C23.6037 23.3719 24.0293 22.2966 24.186 21.1673C24.3428 20.038 24.2263 18.8875 23.8463 17.8125H21.875C21.6707 17.8125 21.4713 17.8363 21.2812 17.8861C21.6818 18.6093 21.8866 19.4245 21.8756 20.2512C21.8645 21.0778 21.6378 21.8873 21.2181 22.5995C20.7983 23.3117 20.1999 23.902 19.482 24.312C18.7642 24.7221 17.9517 24.9377 17.125 24.9375H10C8.74022 24.9375 7.53204 24.4371 6.64124 23.5463C5.75044 22.6555 5.25 21.4473 5.25 20.1875C5.25 18.9277 5.75044 17.7195 6.64124 16.8287C7.53204 15.9379 8.74022 15.4375 10 15.4375H13.6456C14.1634 14.5445 14.8212 13.7418 15.5931 13.0625H15.5907Z" fill="#9B27AF"/>
<path d="M21.8748 13.0625C20.7347 13.0619 19.611 13.3349 18.5982 13.8587C17.5854 14.3824 16.7132 15.1416 16.0546 16.0724C15.3961 17.0031 14.9706 18.0784 14.8138 19.2077C14.657 20.3371 14.7735 21.4875 15.1536 22.5625H17.7613C17.3444 21.8404 17.125 21.0213 17.125 20.1875C17.1249 19.3537 17.3444 18.5346 17.7613 17.8126C18.1782 17.0905 18.7778 16.4908 19.4999 16.0739C20.2219 15.657 21.041 15.4375 21.8748 15.4375H28.9998C30.2596 15.4375 31.4678 15.9379 32.3586 16.8287C33.2494 17.7195 33.7498 18.9277 33.7498 20.1875C33.7498 21.4473 33.2494 22.6555 32.3586 23.5463C31.4678 24.4371 30.2596 24.9375 28.9998 24.9375H25.3542C24.8375 25.8291 24.1798 26.6311 23.4067 27.3125H28.9998C29.9355 27.3125 30.862 27.1282 31.7264 26.7701C32.5909 26.4121 33.3764 25.8873 34.038 25.2256C34.6996 24.564 35.2244 23.7786 35.5825 22.9141C35.9405 22.0497 36.1248 21.1232 36.1248 20.1875C36.1248 19.2518 35.9405 18.3253 35.5825 17.4609C35.2244 16.5964 34.6996 15.811 34.038 15.1494C33.3764 14.4877 32.5909 13.9629 31.7264 13.6049C30.862 13.2468 29.9355 13.0625 28.9998 13.0625H21.8748Z" fill="#9B27AF"/>
</svg>
