<svg width="83" height="84" viewBox="0 0 83 84" fill="none" xmlns="http://www.w3.org/2000/svg">
<path d="M53.3572 44.6372C55.0754 45.1742 56.7216 45.9162 58.26 46.8468L58.1615 46.79C59.8423 47.5318 61.2944 48.3998 62.6194 49.4193L62.5717 49.3846C62.6352 49.5772 62.6734 49.795 62.6734 50.0254L62.6702 50.1264V50.1233C62.6225 51.4774 62.3207 52.7495 61.8091 53.9079L61.8345 53.8416C61.1006 55.3031 59.8773 56.43 58.3807 57.0297L58.3362 57.0455C56.7877 57.8498 55.0753 58.2934 53.3286 58.3428H53.3096C49.9757 57.917 46.7537 56.865 43.8155 55.2431L43.9521 55.3126C40.8313 53.9081 37.9933 51.9519 35.5765 49.5393L35.5733 49.5361C32.9373 46.8096 30.5472 43.8585 28.4306 40.7168L28.2812 40.4833C26.1807 37.7556 24.9621 34.4593 24.7861 31.0295L24.7829 30.9885V30.597C24.8295 29.1319 25.1758 27.6916 25.8007 26.3637C26.4257 25.0358 27.3161 23.8481 28.4179 22.8731L28.4274 22.8636C29.108 22.1899 30.0246 21.8042 30.9852 21.7872H30.9884C31.3093 21.7967 31.6175 21.8219 31.9162 21.8661L31.8749 21.8598C32.1513 21.9009 32.4722 21.9261 32.8027 21.9324H32.8122C33.2748 21.8877 33.7389 22.0013 34.1276 22.2544L34.1213 22.2512C34.4613 22.6237 34.7218 23.0751 34.8775 23.5706L34.8839 23.5959C35.1465 24.2482 35.6888 25.6834 36.5107 27.9014C36.9396 28.8925 37.359 30.1141 37.6959 31.3704L37.7403 31.5693C37.5112 32.6679 36.9142 33.657 36.0468 34.3754L36.0372 34.3817C34.904 35.5728 34.3373 36.3303 34.3373 36.6544C34.3495 36.9201 34.4389 37.1767 34.5947 37.393L34.5915 37.3899C35.8204 39.9137 37.5196 42.1832 39.5991 44.0785L39.615 44.0943C41.792 46.0425 44.2326 47.6787 46.8658 48.9553L47.0533 49.0374C47.3753 49.245 47.747 49.3637 48.1304 49.3815H48.1368C48.6303 49.3815 49.5179 48.5902 50.7994 47.0078C52.081 45.4253 52.9325 44.6341 53.3541 44.6341L53.3572 44.6372ZM43.358 70.5712H43.4279C47.6 70.5771 51.7275 69.7181 55.5465 68.0491L55.3526 68.1249C62.8386 64.9873 68.6755 59.1888 71.7575 51.9509L71.8338 51.752C73.3907 48.2388 74.2963 44.1417 74.2963 39.8362C74.2963 35.5307 73.3907 31.4335 71.7575 27.7246L71.8338 27.9203C68.6755 20.4836 62.8386 14.6851 55.5528 11.6232L55.3526 11.5475C51.8162 10.0008 47.6919 9.10118 43.358 9.10118C39.024 9.10118 34.8997 10.0008 31.1663 11.6232L31.3633 11.5475C23.8774 14.6851 18.0405 20.4836 14.9584 27.7215L14.8821 27.9203C13.2439 31.6947 12.4056 35.7638 12.4197 39.8741C12.4094 46.3728 14.5025 52.7026 18.39 57.9293L18.3296 57.8472L14.4373 69.2517L26.3589 65.4829C31.3391 68.8151 37.2106 70.5875 43.215 70.5712H43.3643H43.358ZM43.358 2.93967H43.4628C48.6356 2.93967 53.5542 4.0192 57.9994 5.96677L57.7675 5.87523C66.7436 9.65358 73.7434 16.6074 77.4546 25.2846L77.5468 25.5245C79.4151 29.7448 80.5017 34.6658 80.5017 39.8393C80.5017 45.0129 79.4151 49.9339 77.4546 54.3877L77.5468 54.1541C73.7434 63.0713 66.7436 70.0251 58.0089 73.7119L57.7675 73.8034C53.5511 75.6595 48.6325 76.739 43.4596 76.739H43.3516H43.358H43.1896C36.6473 76.739 30.5054 75.0313 25.1928 72.0421L25.3739 72.1368L4.83203 78.696L11.5332 58.8763C8.0352 53.1601 6.19454 46.5951 6.2142 39.9056C6.2142 34.71 7.30087 29.7669 9.26132 25.2878L9.16918 25.5245C12.9725 16.6074 19.9723 9.65357 28.707 5.96677L28.9485 5.87523C33.4614 3.92229 38.3338 2.92262 43.2563 2.93967H43.3611H43.3548H43.358Z" fill="#9C27B0"/>
</svg>
