<svg width="83" height="84" viewBox="0 0 83 84" fill="none" xmlns="http://www.w3.org/2000/svg">
<path fill-rule="evenodd" clip-rule="evenodd" d="M42.2001 35.7668C34.4303 35.7668 26.9063 38.493 20.9362 43.4713L16.7852 38.4819C23.9207 32.5317 32.9135 29.2734 42.2001 29.2734C51.4866 29.2734 60.4794 32.5317 67.615 38.4819L63.4639 43.4713C57.4939 38.493 49.9698 35.7668 42.2001 35.7668Z" fill="#9C27B0"/>
<path fill-rule="evenodd" clip-rule="evenodd" d="M42.0675 19.1731C29.9418 19.1731 18.2327 23.6021 9.13651 31.6294L4.84766 26.7583C15.1286 17.6855 28.3626 12.6797 42.0675 12.6797C55.7723 12.6797 69.0063 17.6855 79.2873 26.7583L74.9984 31.6294C65.9022 23.6021 54.1931 19.1731 42.0675 19.1731Z" fill="#9C27B0"/>
<path fill-rule="evenodd" clip-rule="evenodd" d="M42.084 52.3592C38.6286 52.3592 35.2587 53.4357 32.4418 55.4393L28.6853 50.1458C32.5997 47.3616 37.2824 45.8658 42.084 45.8658C46.8857 45.8658 51.5684 47.3616 55.4828 50.1458L51.7263 55.4393C48.9094 53.4357 45.5395 52.3592 42.084 52.3592Z" fill="#9C27B0"/>
<path d="M47.1619 65.7035C47.1619 68.0943 45.226 70.0324 42.8379 70.0324C40.4498 70.0324 38.5139 68.0943 38.5139 65.7035C38.5139 63.3127 40.4498 61.3745 42.8379 61.3745C45.226 61.3745 47.1619 63.3127 47.1619 65.7035Z" fill="#9C27B0"/>
</svg>
