<svg width="39" height="38" viewBox="0 0 39 38" fill="none" xmlns="http://www.w3.org/2000/svg">
<path d="M19.6219 4.74609C19.6354 4.74612 19.6499 4.74616 19.6656 4.74619L19.8337 4.74672C21.7855 4.75389 31.6776 4.82559 34.3447 5.54263C35.9797 5.98116 37.2672 7.27353 37.7042 8.91402C37.9448 9.81532 38.1124 11.0133 38.2293 12.2453L38.252 12.4921C38.2704 12.698 38.2873 12.9044 38.3031 13.11L38.3213 13.3563C38.4775 15.5273 38.4957 17.5588 38.4978 18.0033L38.498 18.0633C38.498 18.0682 38.498 18.0762 38.498 18.0762V18.1099C38.498 18.1099 38.498 18.1179 38.498 18.1228L38.4978 18.1828C38.4956 18.6441 38.4761 20.8146 38.3031 23.0763L38.2836 23.3233L38.2628 23.5706C38.1452 24.9304 37.9688 26.2808 37.7042 27.2721C37.2672 28.9126 35.9797 30.2053 34.3447 30.6435C31.5887 31.3847 21.118 31.4366 19.6656 31.4402L19.5537 31.4405C19.5445 31.4405 19.5365 31.4405 19.5295 31.4405L19.4839 31.4405C19.4839 31.4405 19.4734 31.4405 19.4665 31.4405L19.3305 31.4402C18.5965 31.4384 15.5592 31.4243 12.3784 31.315L11.9718 31.3006C11.9039 31.298 11.836 31.2955 11.7682 31.2929L11.361 31.2768L10.9548 31.2596C8.31976 31.144 5.80736 30.9543 4.65161 30.6435C3.01661 30.2053 1.72912 28.9126 1.29214 27.2721C1.02741 26.2808 0.850921 24.9304 0.733262 23.5706L0.712512 23.3233L0.693018 23.0763C0.526262 20.8968 0.502055 18.802 0.498541 18.2398L0.498121 18.1593C0.498092 18.1521 0.498067 18.1454 0.498047 18.1393V18.0468C0.498067 18.0407 0.498092 18.034 0.498121 18.0268L0.498541 17.9463C0.501724 17.4371 0.521879 15.671 0.649527 13.7233L0.666049 13.479C0.668898 13.4381 0.671796 13.3972 0.674742 13.3563L0.693018 13.11C0.70875 12.9044 0.72575 12.698 0.744122 12.4921L0.766832 12.2453C0.883739 11.0133 1.05148 9.81532 1.29214 8.91402C1.72912 7.27353 3.01661 5.98116 4.65161 5.54263C5.80736 5.23191 8.31976 5.04238 10.9548 4.92676L11.361 4.90955L11.7682 4.89347C11.836 4.89088 11.9039 4.88833 11.9718 4.88584L12.3784 4.87137C15.3562 4.76915 18.2082 4.75022 19.1623 4.74672L19.3305 4.74619C19.3461 4.74616 19.3607 4.74612 19.3742 4.74609H19.6219ZM15.6981 12.3727V23.8134L25.5704 18.0934L15.6981 12.3727Z" fill="#9B27AF"/>
</svg>
